<svg height="512pt" viewBox="0 0 512 512" width="512pt" xmlns="http://www.w3.org/2000/svg"><path d="m456.832031 0h-401.667969c-30.417968 0-55.164062 24.75-55.164062 55.167969v401.664062c0 30.421875 24.746094 55.167969 55.164062 55.167969h401.667969c30.421875 0 55.167969-24.746094 55.167969-55.167969v-401.664062zm0 0" fill="#54e360"/><path d="m456.832031 0h-200.832031v512h200.832031c30.421875 0 55.167969-24.746094 55.167969-55.167969v-401.664062zm0 0" fill="#00ab5e"/><path d="m456.832031 0h-192.800781c-30.417969 0-55.167969 24.75-55.167969 55.167969v192.800781c0 30.417969 24.75 55.164062 55.167969 55.164062h192.796875c30.421875 0 55.167969-24.746093 55.167969-55.164062l.003906-192.800781c0-30.417969-24.746094-55.167969-55.167969-55.167969zm0 0" fill="#3d5959"/><path d="m456.832031 0h-96.398437v303.132812h96.394531c30.421875 0 55.167969-24.746093 55.167969-55.164062l.003906-192.800781c0-30.417969-24.746094-55.167969-55.167969-55.167969zm0 0" fill="#293939"/><path d="m63.195312 463.800781c-3.949218 0-7.808593-1.601562-10.601562-4.390625-2.796875-2.789062-4.398438-6.660156-4.398438-10.609375s1.601563-7.820312 4.398438-10.609375c2.792969-2.792968 6.652344-4.390625 10.601562-4.390625 3.949219 0 7.820313 1.597657 10.609376 4.390625 2.789062 2.796875 4.390624 6.660156 4.390624 10.609375s-1.601562 7.808594-4.390624 10.609375c-2.789063 2.789063-6.660157 4.390625-10.609376 4.390625zm0 0" fill="#c5e1e6"/><path d="m63.195312 78.199219c-3.949218 0-7.808593-1.601563-10.601562-4.390625-2.796875-2.800782-4.398438-6.660156-4.398438-10.609375s1.601563-7.808594 4.398438-10.609375c2.792969-2.789063 6.652344-4.390625 10.601562-4.390625 3.949219 0 7.820313 1.601562 10.609376 4.390625 2.789062 2.800781 4.390624 6.660156 4.390624 10.609375s-1.601562 7.8125-4.390624 10.609375c-2.789063 2.792968-6.660157 4.390625-10.609376 4.390625zm0 0" fill="#c5e1e6"/><path d="m392.566406 238.867188c-8.285156 0-15-6.714844-15-15v-32.132813c0-8.285156 6.714844-15 15-15 8.28125 0 15 6.714844 15 15v32.132813c0 8.285156-6.714844 15-15 15zm0 0" fill="#8db9c4"/><path d="m328.300781 238.867188c-8.285156 0-15-6.714844-15-15v-32.132813c0-8.285156 6.714844-15 15-15 8.28125 0 15 6.714844 15 15v32.132813c0 8.285156-6.71875 15-15 15zm0 0" fill="#c5e1e6"/><path d="m392.566406 126.398438c-8.285156 0-15-6.714844-15-15v-32.132813c0-8.28125 6.714844-15 15-15 8.28125 0 15 6.71875 15 15v32.132813c0 8.285156-6.714844 15-15 15zm0 0" fill="#8db9c4"/><g fill="#c5e1e6"><path d="m328.300781 126.398438c-8.285156 0-15-6.714844-15-15v-32.132813c0-8.28125 6.714844-15 15-15 8.28125 0 15 6.71875 15 15v32.132813c0 8.285156-6.71875 15-15 15zm0 0"/><path d="m320.265625 198.699219h-32.132813c-8.285156 0-15-6.714844-15-15 0-8.28125 6.714844-15 15-15h32.132813c8.285156 0 15 6.71875 15 15 0 8.285156-6.714844 15-15 15zm0 0"/><path d="m320.265625 134.433594h-32.132813c-8.285156 0-15-6.714844-15-15s6.714844-15 15-15h32.132813c8.285156 0 15 6.714844 15 15s-6.714844 15-15 15zm0 0"/></g><path d="m432.730469 198.699219h-32.128907c-8.285156 0-15-6.714844-15-15 0-8.28125 6.714844-15 15-15h32.132813c8.28125 0 15 6.71875 15 15-.003906 8.285156-6.71875 15-15.003906 15zm0 0" fill="#8db9c4"/><path d="m432.730469 134.433594h-32.128907c-8.285156 0-15-6.714844-15-15s6.714844-15 15-15h32.132813c8.28125 0 15 6.714844 15 15s-6.71875 15-15.003906 15zm0 0" fill="#8db9c4"/><path d="m448.796875 463.800781c-3.949219 0-7.8125-1.601562-10.601563-4.390625-2.800781-2.789062-4.398437-6.660156-4.398437-10.609375s1.601563-7.820312 4.398437-10.609375c2.789063-2.792968 6.648438-4.390625 10.601563-4.390625 3.949219 0 7.816406 1.597657 10.609375 4.390625 2.789062 2.796875 4.390625 6.660156 4.390625 10.609375s-1.601563 7.808594-4.390625 10.609375c-2.800781 2.789063-6.660156 4.390625-10.609375 4.390625zm0 0" fill="#8db9c4"/><path d="m79.265625 142.46875h-64.265625c-8.285156 0-15-6.71875-15-15 0-8.285156 6.714844-15 15-15h64.265625c8.285156 0 15 6.714844 15 15 0 8.28125-6.714844 15-15 15zm0 0" fill="#c5e1e6"/><path d="m79.265625 206.734375h-64.265625c-8.285156 0-15-6.71875-15-15 0-8.285156 6.714844-15 15-15h64.265625c8.285156 0 15 6.714844 15 15 0 8.28125-6.714844 15-15 15zm0 0" fill="#c5e1e6"/><path d="m320.265625 512c-8.285156 0-15-6.714844-15-15v-64.265625c0-8.285156 6.714844-15 15-15s15 6.714844 15 15v64.265625c0 8.285156-6.714844 15-15 15zm0 0" fill="#8db9c4"/><path d="m384.53125 512c-8.285156 0-15-6.714844-15-15v-64.265625c0-8.285156 6.714844-15 15-15s15 6.714844 15 15v64.265625c0 8.285156-6.714844 15-15 15zm0 0" fill="#8db9c4"/><path d="m223.863281 305.265625h-128.53125c-8.285156 0-15 6.71875-15 15v80.335937c0 8.28125 6.714844 15 15 15h128.53125c8.285157 0 15-6.71875 15-15v-80.335937c0-8.285156-6.714843-15-15-15zm0 0" fill="#3d5959"/><path d="m352.398438 321.332031c-25.992188 0-47.132813 21.144531-47.132813 47.136719 0 25.988281 21.140625 47.132812 47.132813 47.132812 25.988281 0 47.132812-21.144531 47.132812-47.132812 0-25.992188-21.140625-47.136719-47.132812-47.136719zm0 0" fill="#8db9c4"/><path d="m151.5625 112.46875c-25.988281 0-47.132812 21.140625-47.132812 47.132812 0 25.988282 21.144531 47.132813 47.132812 47.132813s47.132812-21.144531 47.132812-47.132813c0-25.992187-21.140624-47.132812-47.132812-47.132812zm0 0" fill="#c5e1e6"/><path d="m79.265625 271h-64.265625c-8.285156 0-15-6.714844-15-15s6.714844-15 15-15h64.265625c8.285156 0 15 6.714844 15 15s-6.714844 15-15 15zm0 0" fill="#c5e1e6"/><path d="m256 512c-8.285156 0-15-6.714844-15-15v-64.265625c0-8.285156 6.714844-15 15-15 8.28125 0 15 6.714844 15 15v64.265625c0 8.285156-6.71875 15-15 15zm0 0" fill="#c5e1e6"/><path d="m400.601562 96.398438h-80.335937c-8.285156 0-15 6.71875-15 15v80.335937c0 8.28125 6.714844 15 15 15h80.335937c8.28125 0 15-6.71875 15-15v-80.335937c0-8.28125-6.71875-15-15-15zm0 0" fill="#ffd400"/><path d="m400.601562 96.398438h-40.167968v110.335937h40.167968c8.28125 0 15-6.71875 15-15v-80.335937c0-8.28125-6.71875-15-15-15zm0 0" fill="#ff9f04"/><path d="m256 417.734375v94.265625c8.28125 0 15-6.714844 15-15v-64.265625c0-8.285156-6.71875-15-15-15zm0 0" fill="#8db9c4"/></svg>