<!DOCTYPE svg PUBLIC "-//W3C//DTD SVG 20010904//EN" "http://www.w3.org/TR/2001/REC-SVG-20010904/DTD/svg10.dtd">
<svg version="1.0" xmlns="http://www.w3.org/2000/svg" width="1600px" height="900px" viewBox="0 0 16000 9000" preserveAspectRatio="xMidYMid meet">
<g id="layer101" fill="#6d7438" stroke="none">
 <path d="M0 4500 l0 -4500 8000 0 8000 0 0 4500 0 4500 -8000 0 -8000 0 0 -4500z"/>
 </g>
<g id="layer102" fill="#0c8b91" stroke="none">
 <path d="M0 4500 l0 -4500 8000 0 8000 0 0 4500 0 4500 -1414 0 -1415 0 -4 -32 -4 -33 -1 32 -2 33 -6580 0 -6580 0 0 -4500z m6365 4460 c3 -5 4 -10 1 -10 -3 0 -8 5 -11 10 -3 6 -4 10 -1 10 3 0 8 -4 11 -10z m74 -104 c-3 -3 -11 5 -18 17 -13 21 -12 21 5 5 10 -10 16 -20 13 -22z m4576 -136 c9 -16 13 -30 11 -30 -3 0 -12 14 -21 30 -9 17 -13 30 -11 30 3 0 12 -13 21 -30z m33 -75 c-3 -3 -9 2 -12 12 -6 14 -5 15 5 6 7 -7 10 -15 7 -18z m19 -52 c-4 -3 -7 0 -7 7 0 7 3 10 7 7 3 -4 3 -10 0 -14z m50 -10 c-4 -3 -7 0 -7 7 0 7 3 10 7 7 3 -4 3 -10 0 -14z m17 -29 c3 -8 2 -12 -4 -9 -6 3 -10 10 -10 16 0 14 7 11 14 -7z m-3777 -441 c-4 -3 -7 0 -7 7 0 7 3 10 7 7 3 -4 3 -10 0 -14z m-47 -77 c0 -2 -8 -10 -17 -17 -16 -13 -17 -12 -4 4 13 16 21 21 21 13z m2595 -56 c3 -5 4 -10 1 -10 -3 0 -8 5 -11 10 -3 6 -4 10 -1 10 3 0 8 -4 11 -10z m-2644 -27 c-12 -20 -14 -14 -5 12 4 9 9 14 11 11 3 -2 0 -13 -6 -23z m2726 -40 c-4 -3 -10 -3 -14 0 -3 4 0 7 7 7 7 0 10 -3 7 -7z m1103 -152 c0 -5 -7 -14 -15 -21 -13 -10 -15 -9 -15 9 0 12 6 21 15 21 8 0 15 -4 15 -9z m-789 -198 c13 -16 12 -17 -3 -4 -17 13 -22 21 -14 21 2 0 10 -8 17 -17z m149 -281 c0 -15 -2 -15 -10 -2 -13 20 -13 33 0 25 6 -3 10 -14 10 -23z m-90 -517 c0 -3 -18 -25 -41 -49 -22 -25 -42 -57 -43 -73 -2 -15 -4 -138 -5 -272 0 -134 -4 -242 -7 -238 -3 3 -5 128 -5 277 l2 272 46 44 c45 43 53 49 53 39z m-4007 -382 c-7 -2 -19 -2 -25 0 -7 3 -2 5 12 5 14 0 19 -2 13 -5z m100 0 c-13 -2 -33 -2 -45 0 -13 2 -3 4 22 4 25 0 35 -2 23 -4z m3930 -410 c36 -35 62 -63 57 -63 -4 0 -44 39 -89 86 -52 55 -81 93 -81 107 1 16 7 11 24 -23 13 -25 53 -73 89 -107z m197 -215 l22 -33 -27 30 c-14 17 -46 55 -71 85 l-46 55 50 -52 c28 -29 60 -67 72 -85z m-4053 -45 c-4 -3 -10 -3 -14 0 -3 4 0 7 7 7 7 0 10 -3 7 -7z m4080 -10 c-4 -3 -7 0 -7 7 0 7 3 10 7 7 3 -4 3 -10 0 -14z m-270 -30 c-4 -3 -7 0 -7 7 0 7 3 10 7 7 3 -4 3 -10 0 -14z m303 -38 c0 -5 -5 -3 -10 5 -5 8 -10 20 -10 25 0 6 5 3 10 -5 5 -8 10 -19 10 -25z m7 -32 c-4 -3 -7 0 -7 7 0 7 3 10 7 7 3 -4 3 -10 0 -14z m32 -67 c-1 -20 -1 -21 -6 -1 -3 11 -9 24 -14 30 -5 5 -9 14 -9 20 0 5 7 1 15 -9 8 -11 14 -29 14 -40z m34 -88 c3 -10 5 -18 2 -18 -6 0 -35 62 -35 74 0 11 20 -24 33 -56z m27 -48 c6 -11 8 -20 6 -20 -3 0 -10 9 -16 20 -6 11 -8 20 -6 20 3 0 10 -9 16 -20z m72 -127 c16 -24 27 -43 24 -43 -8 0 -76 103 -76 115 0 5 6 1 12 -10 6 -11 24 -39 40 -62z m53 -83 c9 -16 13 -30 11 -30 -3 0 -12 14 -21 30 -9 17 -13 30 -11 30 3 0 12 -13 21 -30z m-518 3 c-4 -3 -10 -3 -14 0 -3 4 0 7 7 7 7 0 10 -3 7 -7z m60 -20 c-4 -3 -10 -3 -14 0 -3 4 0 7 7 7 7 0 10 -3 7 -7z m78 -33 c3 -6 -1 -7 -9 -4 -18 7 -21 14 -7 14 6 0 13 -4 16 -10z m409 -6 c3 -8 2 -12 -4 -9 -6 3 -10 10 -10 16 0 14 7 11 14 -7z m-379 -14 c3 -5 4 -10 1 -10 -3 0 -8 5 -11 10 -3 6 -4 10 -1 10 3 0 8 -4 11 -10z m470 -180 c29 -58 56 -116 60 -130 10 -36 -103 185 -126 245 -23 60 -24 74 -2 25 8 -19 39 -82 68 -140z m-375 103 l45 -46 -52 43 c-29 24 -53 45 -53 47 0 11 21 -4 60 -44z m88 -98 c-3 -3 -13 7 -23 22 l-17 28 23 -22 c12 -12 20 -25 17 -28z m77 -75 c3 -5 4 -10 1 -10 -3 0 -8 5 -11 10 -3 6 -4 10 -1 10 3 0 8 -4 11 -10z m293 -150 c0 -9 -3 -7 -8 5 -5 11 -8 29 -8 40 0 16 2 15 8 -5 4 -14 8 -32 8 -40z m-213 40 c3 -5 4 -10 1 -10 -3 0 -8 5 -11 10 -3 6 -4 10 -1 10 3 0 8 -4 11 -10z m49 -87 c9 -18 14 -33 12 -33 -6 0 -36 55 -36 66 0 11 5 3 24 -33z m173 -5 c-3 -8 -6 -5 -6 6 -1 11 2 17 5 13 3 -3 4 -12 1 -19z m21 -78 c0 -9 -3 -7 -8 5 -5 11 -8 29 -8 40 0 16 2 15 8 -5 4 -14 8 -32 8 -40z m-140 -35 c-3 -3 -9 2 -12 12 -6 14 -5 15 5 6 7 -7 10 -15 7 -18z m149 -17 c-3 -8 -6 -5 -6 6 -1 11 2 17 5 13 3 -3 4 -12 1 -19z m10 -60 c-3 -7 -5 -2 -5 12 0 14 2 19 5 13 2 -7 2 -19 0 -25z m10 -35 c-4 -3 -7 0 -7 7 0 7 3 10 7 7 3 -4 3 -10 0 -14z m-104 -33 c3 -11 1 -18 -4 -14 -5 3 -9 12 -9 20 0 20 7 17 13 -6z m114 -2 c-3 -8 -6 -5 -6 6 -1 11 2 17 5 13 3 -3 4 -12 1 -19z m53 -158 c5 -19 7 -36 5 -39 -3 -2 -6 2 -8 10 -2 8 -14 43 -25 79 -12 36 -22 72 -22 80 1 17 36 -76 50 -130z m-153 103 c-4 -3 -7 0 -7 7 0 7 3 10 7 7 3 -4 3 -10 0 -14z m-4440 -9 c-3 -3 -12 -4 -19 -1 -8 3 -5 6 6 6 11 1 17 -2 13 -5z m-1740 -166 c-2 -13 -4 -5 -4 17 -1 22 1 32 4 23 2 -10 2 -28 0 -40z m6340 -50 c-2 -13 -4 -3 -4 22 0 25 2 35 4 23 2 -13 2 -33 0 -45z m-4876 -1 c-10 -9 -11 -8 -5 6 3 10 9 15 12 12 3 -3 0 -11 -7 -18z m4898 -142 c0 -11 -7 0 -15 25 -7 25 -13 54 -13 65 0 11 7 0 15 -25 7 -25 13 -54 13 -65z m-5532 58 c-4 -3 -7 0 -7 7 0 7 3 10 7 7 3 -4 3 -10 0 -14z m180 -20 c-4 -3 -7 0 -7 7 0 7 3 10 7 7 3 -4 3 -10 0 -14z m-947 -92 c-1 -10 -50 73 -50 84 0 6 11 -10 25 -34 14 -23 25 -46 25 -50z m1367 72 c-4 -3 -7 0 -7 7 0 7 3 10 7 7 3 -4 3 -10 0 -14z m4130 -10 c-4 -3 -10 -3 -14 0 -3 4 0 7 7 7 7 0 10 -3 7 -7z m821 -93 c0 -9 -3 -7 -8 5 -5 11 -8 29 -8 40 0 16 2 15 8 -5 4 -14 8 -32 8 -40z m-5340 -16 c-3 -27 -4 -26 -9 8 -3 22 -1 34 4 29 5 -5 7 -21 5 -37z m-943 26 c3 -5 4 -10 1 -10 -3 0 -8 5 -11 10 -3 6 -4 10 -1 10 3 0 8 -4 11 -10z m6292 -47 c-4 -3 -7 0 -7 7 0 7 3 10 7 7 3 -4 3 -10 0 -14z m22 -53 c0 -10 -3 -8 -9 5 -12 27 -12 43 0 25 5 -8 9 -22 9 -30z m-3902 13 c-4 -3 -10 -3 -14 0 -3 4 0 7 7 7 7 0 10 -3 7 -7z m-2207 -13 c8 -5 11 -10 5 -10 -5 0 -17 5 -25 10 -8 5 -10 10 -5 10 6 0 17 -5 25 -10z m2297 -16 c-3 -3 -12 -4 -19 -1 -8 3 -5 6 6 6 11 1 17 -2 13 -5z m3820 -36 c-3 -8 -6 -5 -6 6 -1 11 2 17 5 13 3 -3 4 -12 1 -19z m-3750 5 c-4 -3 -10 -3 -14 0 -3 4 0 7 7 7 7 0 10 -3 7 -7z m40 -9 c-3 -3 -12 -4 -19 -1 -8 3 -5 6 6 6 11 1 17 -2 13 -5z m3722 -113 c2 -67 -6 -45 -12 34 -3 42 -2 58 3 40 4 -16 8 -50 9 -74z m-5711 32 c-21 -2 -57 -2 -80 0 -24 2 -7 4 37 4 44 0 63 -2 43 -4z m225 -10 c-7 -2 -19 -2 -25 0 -7 3 -2 5 12 5 14 0 19 -2 13 -5z m5288 -30 c-12 -20 -14 -14 -5 12 4 9 9 14 11 11 3 -2 0 -13 -6 -23z m-4534 -60 c-4 -3 -10 -3 -14 0 -3 4 0 7 7 7 7 0 10 -3 7 -7z m4740 -30 c-4 -3 -7 0 -7 7 0 7 3 10 7 7 3 -4 3 -10 0 -14z m-5000 -10 c-4 -3 -10 -3 -14 0 -3 4 0 7 7 7 7 0 10 -3 7 -7z m30 -10 c-4 -3 -10 -3 -14 0 -3 4 0 7 7 7 7 0 10 -3 7 -7z m1170 -19 c-3 -3 -12 -4 -19 -1 -8 3 -5 6 6 6 11 1 17 -2 13 -5z m-890 -20 c-3 -3 -12 -4 -19 -1 -8 3 -5 6 6 6 11 1 17 -2 13 -5z m130 0 c-3 -3 -12 -4 -19 -1 -8 3 -5 6 6 6 11 1 17 -2 13 -5z m-240 -31 c-4 -3 -10 -3 -14 0 -3 4 0 7 7 7 7 0 10 -3 7 -7z m40 -9 c-3 -3 -12 -4 -19 -1 -8 3 -5 6 6 6 11 1 17 -2 13 -5z m30 -11 c-4 -3 -10 -3 -14 0 -3 4 0 7 7 7 7 0 10 -3 7 -7z m446 -10 c-7 -2 -19 -2 -25 0 -7 3 -2 5 12 5 14 0 19 -2 13 -5z m364 1 c-3 -3 -12 -4 -19 -1 -8 3 -5 6 6 6 11 1 17 -2 13 -5z m-713 -23 c4 -5 -3 -7 -14 -4 -23 6 -26 13 -6 13 8 0 17 -4 20 -9z m263 -7 c-3 -3 -12 -4 -19 -1 -8 3 -5 6 6 6 11 1 17 -2 13 -5z m291 -1 c-10 -2 -26 -2 -35 0 -10 3 -2 5 17 5 19 0 27 -2 18 -5z m4099 -10 c-4 -3 -7 0 -7 7 0 7 3 10 7 7 3 -4 3 -10 0 -14z m-4314 0 c-7 -2 -21 -2 -30 0 -10 3 -4 5 12 5 17 0 24 -2 18 -5z m-210 -20 c-7 -2 -21 -2 -30 0 -10 3 -4 5 12 5 17 0 24 -2 18 -5z m655 0 c-10 -2 -28 -2 -40 0 -13 2 -5 4 17 4 22 1 32 -1 23 -4z m3389 0 c-4 -3 -10 -3 -14 0 -3 4 0 7 7 7 7 0 10 -3 7 -7z m-3644 -10 c-7 -2 -19 -2 -25 0 -7 3 -2 5 12 5 14 0 19 -2 13 -5z m3364 0 c-4 -3 -10 -3 -14 0 -3 4 0 7 7 7 7 0 10 -3 7 -7z m-3631 -21 c-21 -2 -42 0 -47 5 -4 4 13 6 39 3 l47 -5 -39 -3z m3731 1 c-4 -3 -10 -3 -14 0 -3 4 0 7 7 7 7 0 10 -3 7 -7z m-3539 -30 c-10 -2 -28 -2 -40 0 -13 2 -5 4 17 4 22 1 32 -1 23 -4z m309 -30 c-20 -2 -52 -2 -70 0 -17 2 0 4 38 4 39 0 53 -2 32 -4z m96 -10 c-7 -2 -21 -2 -30 0 -10 3 -4 5 12 5 17 0 24 -2 18 -5z m3814 -20 c-4 -3 -7 0 -7 7 0 7 3 10 7 7 3 -4 3 -10 0 -14z m-3589 0 c-16 -2 -40 -2 -55 0 -16 2 -3 4 27 4 30 0 43 -2 28 -4z m3614 -132 c2 -17 1 -28 -4 -25 -8 5 -12 54 -4 54 2 0 6 -13 8 -29z m-2055 -88 c-4 -3 -7 0 -7 7 0 7 3 10 7 7 3 -4 3 -10 0 -14z m2090 -60 c-4 -3 -7 0 -7 7 0 7 3 10 7 7 3 -4 3 -10 0 -14z m10 -35 c-3 -8 -6 -5 -6 6 -1 11 2 17 5 13 3 -3 4 -12 1 -19z m10 -50 c-3 -8 -6 -5 -6 6 -1 11 2 17 5 13 3 -3 4 -12 1 -19z m-1568 -38 c0 -9 -4 -8 -9 5 -5 11 -9 27 -9 35 0 9 4 8 9 -5 5 -11 9 -27 9 -35z m-52 -42 c-2 -13 -4 -5 -4 17 -1 22 1 32 4 23 2 -10 2 -28 0 -40z m1630 10 c-3 -7 -5 -2 -5 12 0 14 2 19 5 13 2 -7 2 -19 0 -25z m-1214 -308 c3 -11 1 -18 -4 -14 -5 3 -9 12 -9 20 0 20 7 17 13 -6z m1198 -76 c-17 -43 -30 -72 -30 -64 -1 17 51 152 56 146 2 -2 -10 -39 -26 -82z m-1174 -11 c-4 -3 -7 0 -7 7 0 7 3 10 7 7 3 -4 3 -10 0 -14z m-902 -483 c3 -5 4 -10 1 -10 -3 0 -8 5 -11 10 -3 6 -4 10 -1 10 3 0 8 -4 11 -10z m2082 -72 c-2 -13 -4 -5 -4 17 -1 22 1 32 4 23 2 -10 2 -28 0 -40z m-7 -75 c-17 -75 -17 -77 -13 -29 4 46 9 66 18 66 1 0 -1 -17 -5 -37z m-30 -150 c-11 -17 -11 -17 -6 0 3 10 7 28 7 40 2 22 2 22 6 0 2 -12 -1 -30 -7 -40z m-19 -57 c-14 -36 -22 -33 -9 5 6 16 12 28 14 26 3 -2 0 -16 -5 -31z m-64 -263 c-4 -3 -7 0 -7 7 0 7 3 10 7 7 3 -4 3 -10 0 -14z m-10 -65 c-3 -7 -5 -2 -5 12 0 14 2 19 5 13 2 -7 2 -19 0 -25z m-10 -35 c-4 -3 -7 0 -7 7 0 7 3 10 7 7 3 -4 3 -10 0 -14z m-37 -48 c-24 -25 -128 -80 -136 -72 -3 2 17 14 43 25 26 12 61 33 77 47 37 32 46 32 16 0z m-292 -297 c-2 -16 -27 -33 -95 -68 -50 -25 -101 -54 -112 -64 -12 -11 -21 -14 -21 -8 0 19 69 68 144 100 24 11 51 30 58 41 17 27 30 27 26 -1z m-228 -166 c0 -5 -9 -17 -20 -27 -22 -20 -26 -14 -10 16 11 19 30 26 30 11z m-103 -308 c-3 -3 -12 -4 -19 -1 -8 3 -5 6 6 6 11 1 17 -2 13 -5z m-174 -11 c-7 -2 -21 -2 -30 0 -10 3 -4 5 12 5 17 0 24 -2 18 -5z m-2716 -10 c-4 -3 -10 -3 -14 0 -3 4 0 7 7 7 7 0 10 -3 7 -7z m2618 -13 c-62 -25 -70 -25 -25 0 19 11 44 19 55 19 11 0 -2 -9 -30 -19z m-120 -53 c-32 -17 -86 -57 -119 -87 -32 -30 -57 -50 -55 -44 7 20 133 124 174 144 65 32 65 22 0 -13z m-2288 -194 c-4 -3 -10 -3 -14 0 -3 4 0 7 7 7 7 0 10 -3 7 -7z m2083 -13 c0 -5 -2 -10 -4 -10 -2 0 -12 -3 -22 -7 -16 -6 -17 -5 -4 10 17 19 30 22 30 7z m-110 -30 c-14 -4 -32 -8 -40 -9 -13 -1 -13 0 0 9 8 5 26 9 40 9 l25 -1 -25 -8z m-2080 -24 c0 -3 -5 -8 -12 -12 -7 -4 -8 -3 -4 4 7 12 16 16 16 8z"/>
 </g>
<g id="layer103" fill="#e25247" stroke="none">
 <path d="M0 4500 l0 -4500 3201 0 c2556 0 3200 3 3197 13 -3 6 -58 40 -122 74 -135 70 -177 97 -255 161 -31 25 -105 78 -166 118 -104 69 -272 219 -338 303 -35 44 -92 104 -235 244 -112 110 -170 196 -187 277 -13 65 -46 152 -87 234 -47 94 -79 143 -160 245 -77 96 -130 201 -126 249 5 55 23 49 47 -17 23 -63 86 -164 122 -196 15 -14 7 8 -29 75 -61 114 -87 196 -73 232 5 14 28 55 50 92 23 36 41 69 41 71 0 9 109 162 124 175 8 6 24 9 35 5 12 -3 32 1 48 11 40 25 213 196 213 210 0 7 7 14 15 18 24 9 81 107 104 176 37 113 20 234 -63 433 l-56 134 0 109 c0 143 4 156 43 152 25 -2 40 -15 77 -68 57 -80 93 -94 215 -85 80 7 100 11 205 46 103 33 190 36 190 6 0 -7 -22 -26 -48 -44 -26 -18 -86 -65 -134 -105 -48 -40 -113 -88 -145 -107 -107 -63 -151 -94 -167 -122 -24 -40 -20 -137 9 -258 14 -58 30 -148 35 -200 6 -53 14 -132 19 -176 8 -64 7 -86 -5 -109 -18 -37 -18 -69 0 -104 7 -15 17 -43 21 -62 13 -65 140 -313 202 -395 123 -162 153 -184 356 -256 60 -21 127 -49 150 -62 173 -102 183 -105 502 -153 55 -8 116 -20 135 -26 19 -6 116 -14 215 -17 l180 -6 -39 -17 c-21 -10 -55 -18 -74 -18 -36 0 -36 0 -17 -20 19 -18 35 -20 245 -21 221 0 226 0 285 26 81 35 89 38 175 79 41 19 90 38 107 41 28 6 34 3 42 -17 7 -17 24 -29 63 -42 97 -32 151 -32 279 3 64 17 130 31 147 31 18 0 32 4 32 9 0 9 -44 68 -128 171 -24 30 -53 72 -64 94 -11 23 -52 87 -89 144 -79 119 -88 163 -46 216 23 28 23 28 81 16 33 -7 73 -21 90 -31 17 -10 34 -19 38 -19 4 0 7 27 6 59 -1 56 2 64 45 128 66 97 120 166 134 171 15 4 33 -37 33 -75 0 -21 2 -24 15 -13 8 7 15 16 15 21 0 23 114 247 146 285 45 56 114 104 159 111 26 4 46 18 75 53 56 67 122 177 159 267 18 43 39 90 47 105 8 14 14 39 15 55 1 61 22 94 78 123 61 32 125 39 451 45 172 3 212 7 338 34 153 33 182 43 182 67 0 24 24 26 86 6 157 -51 279 -62 339 -31 17 9 46 25 66 35 63 33 118 84 164 154 25 37 45 72 45 78 0 6 11 32 24 59 14 27 30 69 35 93 14 58 14 187 1 195 -6 4 -8 10 -5 15 3 5 -4 42 -16 82 -12 40 -27 98 -34 129 -20 88 -40 151 -66 201 -5 10 -9 25 -9 34 0 16 -23 76 -41 104 -5 8 -14 26 -20 40 -6 14 -17 36 -25 50 -7 14 -25 48 -38 77 -14 28 -30 54 -36 58 -5 3 -16 21 -24 38 -17 42 -275 303 -329 334 -145 82 -248 103 -386 79 -50 -8 -116 -51 -141 -91 -18 -30 -21 -46 -18 -112 2 -46 12 -98 23 -126 19 -45 19 -49 3 -58 -15 -8 -15 -13 -3 -42 23 -56 68 -305 60 -335 l-7 -27 -8 25 c-5 14 -27 84 -49 156 -36 113 -45 132 -71 148 -17 9 -30 24 -30 33 0 9 -8 22 -18 29 -16 13 -15 16 15 41 l33 28 9 179 9 178 -48 153 c-51 158 -69 201 -137 320 -22 39 -57 102 -78 140 -20 39 -52 89 -70 113 -47 61 -229 205 -376 296 -69 43 -147 99 -174 125 -26 25 -69 62 -95 81 -26 19 -89 67 -141 106 -131 98 -249 174 -386 248 -65 35 -143 77 -173 93 -30 17 -91 49 -135 73 -44 24 -97 54 -118 67 -72 46 -323 161 -417 193 -52 17 -130 38 -173 45 -109 20 -562 38 -607 25 -19 -5 -44 -10 -55 -10 -18 1 -17 2 5 14 16 9 77 17 170 21 237 11 239 12 246 186 3 68 10 151 15 184 17 93 103 309 134 335 8 7 15 17 15 22 0 32 226 339 358 487 65 73 155 151 173 151 15 0 0 -22 -73 -101 -75 -83 -141 -165 -208 -259 -25 -35 -78 -109 -119 -164 -40 -56 -96 -146 -123 -201 -47 -94 -51 -105 -55 -196 -5 -82 -3 -98 11 -110 10 -8 31 -29 48 -46 17 -18 41 -33 54 -33 48 0 208 158 242 240 8 19 41 80 74 135 118 195 148 258 148 307 0 28 6 50 15 58 13 11 15 2 15 -69 0 -74 2 -84 26 -107 26 -27 39 -28 130 -9 33 7 104 -16 104 -34 0 -6 -16 -11 -36 -11 -24 0 -34 -4 -32 -12 6 -16 41 -26 97 -27 l44 -1 -23 -25 c-13 -14 -65 -53 -114 -87 -113 -78 -171 -138 -250 -258 -76 -116 -86 -140 -91 -220 l-3 -62 51 -24 c29 -13 57 -24 63 -24 28 0 280 -92 374 -137 58 -27 144 -60 190 -72 47 -13 99 -29 115 -37 17 -7 91 -35 166 -62 189 -67 275 -125 453 -306 146 -149 193 -203 183 -212 -8 -8 -63 36 -152 122 -98 93 -155 126 -155 89 0 -14 102 -102 347 -298 289 -232 429 -450 518 -807 46 -183 79 -274 108 -299 23 -18 21 -44 -3 -66 -11 -10 -20 -24 -20 -32 0 -10 14 -6 48 14 47 28 49 28 210 27 114 -1 162 2 162 10 0 29 -62 438 -75 493 -8 34 -15 74 -15 90 0 15 -7 60 -15 98 -8 39 -15 88 -14 110 l0 40 24 -45 c13 -25 69 -90 125 -145 127 -125 171 -182 204 -265 15 -36 33 -77 41 -92 8 -14 15 -35 15 -45 0 -25 90 -199 142 -276 22 -32 57 -97 80 -145 22 -48 64 -136 94 -197 46 -93 60 -135 90 -270 45 -208 73 -313 91 -350 10 -19 17 -65 19 -133 2 -56 6 -106 8 -111 3 -4 13 -43 21 -87 9 -43 23 -94 31 -113 13 -32 19 -71 44 -321 15 -146 26 -231 44 -329 9 -47 18 -105 21 -130 3 -25 13 -59 21 -76 26 -51 45 -172 51 -332 6 -149 5 -154 -22 -230 -15 -43 -33 -84 -39 -92 -13 -16 -15 -262 -3 -331 4 -25 17 -60 27 -78 25 -41 25 -70 1 -197 -19 -101 -36 -160 -53 -182 -26 -33 -50 -125 -54 -208 -5 -113 -16 -146 -61 -185 -80 -71 -199 -93 -363 -70 -50 7 -93 10 -96 7 -14 -14 14 -54 93 -132 54 -53 83 -90 81 -101 -2 -10 -41 -36 -95 -63 -95 -49 -133 -76 -133 -96 0 -7 -8 -20 -19 -29 -18 -16 -19 -15 -36 20 -26 55 -40 30 -41 -74 0 -48 -1 -119 -2 -158 l-2 -71 -107 -5 c-89 -5 -122 -11 -189 -37 -94 -36 -184 -92 -234 -146 -19 -20 -47 -43 -62 -51 -29 -15 -37 -39 -15 -47 21 -9 -10 -24 -62 -30 -65 -8 -156 -40 -156 -55 0 -10 576 -14 3103 -19 l3102 -6 0 4501 0 4502 -1412 -2 -1413 -3 -6 -30 -7 -30 -1 33 -1 32 -351 0 c-331 0 -351 -1 -344 -17 26 -61 12 -79 -34 -47 -22 16 -24 15 -44 -4 -17 -18 -19 -25 -9 -44 47 -93 30 -100 -54 -25 -32 29 -85 72 -116 95 l-58 43 -271 -1 -271 -1 -67 -64 c-88 -85 -115 -105 -140 -105 -31 0 -26 12 17 40 53 35 142 111 142 121 0 5 -141 9 -315 9 -219 0 -315 -3 -315 -11 0 -6 25 -57 55 -113 30 -57 66 -132 79 -168 14 -36 34 -83 46 -106 12 -22 23 -53 25 -69 3 -15 11 -51 19 -79 8 -31 10 -57 5 -65 -13 -20 -22 -3 -54 96 -29 90 -36 105 -111 260 -61 125 -109 212 -132 238 -14 16 -120 17 -1949 17 l-1934 0 6 -22 c4 -13 31 -61 61 -108 74 -114 110 -192 126 -268 10 -54 10 -81 -6 -187 -9 -69 -14 -130 -11 -136 10 -16 49 28 60 69 6 19 15 32 20 30 12 -4 11 -33 -3 -73 -33 -94 -45 -145 -65 -266 -16 -101 -26 -134 -37 -134 -23 0 -97 156 -105 222 -11 93 -45 204 -77 255 -31 50 -105 113 -223 191 -39 25 -100 77 -135 114 -106 112 -185 204 -192 224 -4 10 -11 19 -16 19 -5 0 -15 12 -23 28 -20 40 -26 42 -116 42 -89 0 -97 -6 -72 -52 6 -11 9 -22 7 -24 -8 -7 -58 21 -57 31 1 6 1 19 0 30 -2 18 -4 17 -13 -5 l-10 -25 -15 23 c-15 21 -22 22 -144 22 -71 0 -129 -4 -129 -8 0 -7 60 -46 142 -91 21 -11 62 -27 92 -36 31 -9 58 -21 61 -26 11 -17 -39 -9 -105 15 -153 58 -275 106 -314 126 l-42 20 -2822 0 -2822 0 0 -4500z m8786 4417 c37 -21 144 -121 144 -135 0 -21 -51 11 -119 74 -71 66 -83 95 -25 61z m2441 -68 c98 -30 113 -37 111 -50 -2 -6 20 -25 47 -41 28 -16 66 -44 85 -62 19 -18 62 -52 94 -76 54 -40 58 -44 38 -51 -13 -5 -22 -17 -22 -29 0 -22 -12 -25 -40 -10 -28 15 -45 4 -71 -46 -13 -24 -29 -44 -35 -44 -6 0 -32 31 -58 70 -26 38 -64 83 -84 100 -68 56 -87 71 -126 101 -46 35 -86 86 -86 110 0 17 41 46 67 48 7 1 43 -8 80 -20z m-1907 -400 c102 -84 244 -197 315 -252 72 -56 176 -140 232 -189 56 -48 107 -88 113 -88 5 0 10 -3 10 -7 0 -13 40 -54 113 -117 37 -32 67 -64 67 -71 0 -7 7 -19 17 -26 24 -21 123 -146 123 -157 0 -5 7 -15 16 -23 13 -11 94 -171 94 -187 0 -3 7 -13 15 -23 23 -24 32 -211 15 -276 -23 -86 -61 -146 -138 -221 -71 -70 -75 -72 -93 -56 -32 29 -109 334 -84 334 3 0 19 -15 35 -32 26 -29 29 -31 30 -12 0 25 -26 118 -46 161 -27 60 -45 117 -58 193 -21 111 -63 266 -87 312 -11 22 -56 77 -100 123 -50 52 -79 90 -79 104 0 14 -23 47 -57 83 -72 76 -365 297 -417 315 -22 8 -49 19 -60 25 -39 20 -112 87 -138 125 -26 38 -46 113 -31 113 5 0 92 -68 193 -151z m-1280 46 c0 -9 -8 -18 -17 -22 -24 -9 -94 -62 -115 -87 -20 -24 -24 -6 -6 27 28 49 82 97 110 97 18 0 28 -5 28 -15z m3144 -151 c9 -24 7 -54 -4 -54 -5 0 -10 6 -10 13 0 6 -3 22 -6 35 -7 25 11 31 20 6z m-94 -583 c0 -5 -7 -14 -15 -21 -13 -10 -15 -9 -15 9 0 12 6 21 15 21 8 0 15 -4 15 -9z m-4453 -508 c-4 -3 -10 -3 -14 0 -3 4 0 7 7 7 7 0 10 -3 7 -7z m-27 -18 c0 -2 -10 -10 -22 -16 -21 -11 -22 -11 -9 4 13 16 31 23 31 12z m-80 -71 c0 -3 -22 -29 -48 -57 -62 -68 -145 -175 -167 -216 -31 -61 -67 -186 -68 -236 -2 -101 40 -127 225 -139 97 -7 163 -28 179 -58 25 -47 -47 -70 -253 -77 -175 -7 -187 -11 -240 -87 -22 -31 -27 -50 -28 -97 0 -111 47 -156 179 -169 115 -12 238 -32 341 -57 122 -30 237 -36 361 -20 129 17 197 16 216 -4 14 -13 12 -19 -13 -51 -41 -51 -105 -75 -247 -91 -168 -20 -281 -43 -361 -74 -16 -7 -50 -14 -75 -17 -53 -7 -191 4 -191 15 0 4 34 12 75 18 75 11 115 31 115 59 0 8 -22 25 -49 39 -59 30 -66 38 -49 65 17 27 -1 40 -55 40 -53 0 -123 -49 -217 -151 -121 -131 -123 -141 -91 -325 27 -155 74 -264 135 -312 36 -28 18 -38 -74 -45 -108 -7 -173 -32 -238 -91 -63 -58 -89 -110 -98 -202 -4 -35 -11 -67 -15 -70 -11 -6 -39 57 -63 138 -19 68 -23 226 -6 260 22 42 84 99 153 140 49 28 67 44 63 55 -14 37 -17 61 -7 67 19 12 11 96 -9 96 -4 0 -10 -13 -13 -30 -4 -16 -10 -30 -15 -30 -4 0 -20 26 -35 58 -33 68 -82 132 -103 132 -20 0 -84 -134 -132 -275 -63 -187 -87 -316 -87 -475 0 -125 2 -138 25 -178 23 -41 99 -100 185 -145 57 -30 146 -108 175 -154 34 -53 87 -196 101 -269 6 -34 6 -61 -1 -78 -14 -39 -43 -30 -54 17 -17 68 -26 38 -26 -88 l0 -125 24 6 c23 5 25 3 28 -32 2 -31 8 -39 31 -47 16 -5 48 -6 73 -2 41 6 44 8 44 36 0 16 7 46 16 67 14 34 16 36 29 19 7 -11 17 -36 20 -58 7 -43 23 -59 36 -38 14 23 21 3 23 -68 2 -38 8 -78 15 -90 22 -42 118 -103 211 -134 30 -10 80 -27 110 -39 103 -41 332 -100 384 -100 15 0 37 -5 48 -11 12 -6 60 -15 107 -20 47 -4 109 -13 136 -19 66 -14 326 -11 356 4 12 6 24 17 27 25 3 10 -3 12 -29 8 -68 -12 -216 -15 -274 -5 -33 5 -107 15 -165 23 -208 29 -397 67 -505 102 -27 9 -56 17 -65 18 -8 1 -28 7 -43 14 -16 6 -33 11 -39 11 -18 0 -98 43 -98 53 0 12 53 1 188 -37 81 -23 291 -66 323 -66 41 0 36 14 -13 36 -23 10 -56 30 -72 44 l-29 25 24 5 c21 5 25 13 30 70 6 69 47 232 73 295 47 112 227 235 345 235 29 0 51 -9 83 -33 59 -45 60 -61 3 -88 -35 -17 -52 -32 -67 -64 l-21 -43 22 -45 c19 -40 32 -51 87 -77 35 -16 70 -30 78 -30 19 0 113 -49 128 -67 10 -13 6 -14 -28 -8 -21 4 -57 16 -80 26 -22 10 -45 19 -51 19 -6 0 -24 7 -39 15 -16 8 -36 15 -45 15 -9 0 -40 21 -68 46 -29 26 -54 44 -56 42 -3 -3 2 -56 10 -119 9 -63 13 -131 9 -151 -5 -33 -2 -42 23 -67 28 -28 32 -29 106 -25 89 5 166 34 234 90 69 57 101 26 42 -40 -19 -22 -52 -43 -87 -56 -31 -11 -66 -25 -77 -30 -11 -5 -74 -19 -140 -30 -66 -11 -131 -23 -145 -26 -46 -10 2 -23 96 -25 49 -2 104 -7 121 -12 22 -7 60 -6 115 2 76 10 84 10 96 -6 12 -17 15 -16 38 12 13 17 24 36 24 44 0 7 15 43 34 80 19 36 39 79 45 94 15 38 31 25 31 -24 0 -21 1 -39 3 -39 1 -1 20 -3 42 -6 22 -3 60 -9 85 -15 25 -5 86 -11 137 -13 50 -2 96 -7 102 -10 9 -6 58 -10 286 -21 50 -2 119 -10 155 -16 38 -7 173 -12 325 -13 315 -1 311 -3 393 120 29 43 74 100 100 125 64 62 101 133 108 207 13 117 39 110 49 -13 4 -44 9 -82 11 -84 13 -14 34 16 45 64 13 57 32 79 67 73 13 -2 20 8 28 41 11 48 29 63 38 34 3 -10 10 -81 15 -158 10 -146 19 -178 73 -260 58 -89 130 -135 213 -135 17 0 48 -5 70 -12 l40 -11 -32 -13 c-21 -9 -103 -15 -255 -19 -123 -3 -360 -12 -528 -21 -168 -8 -336 -16 -375 -17 l-70 -2 -3 -37 c-2 -20 2 -46 7 -57 19 -34 -8 -42 -191 -51 -198 -11 -509 -13 -532 -4 -23 9 -19 29 8 42 13 6 26 22 28 37 5 22 1 27 -22 31 -19 4 -33 17 -44 41 -20 42 -40 39 -44 -8 -1 -19 -7 -45 -12 -59 -4 -14 -11 -37 -14 -52 -11 -48 -48 -56 -246 -51 -96 2 -191 6 -210 8 -19 3 -116 12 -215 20 -251 20 -254 21 -262 28 -3 4 -32 7 -63 7 -32 0 -74 7 -93 15 -20 8 -61 15 -91 15 -29 0 -67 7 -82 15 -16 8 -46 15 -67 15 -21 0 -48 7 -61 15 -13 9 -40 18 -60 20 -20 3 -49 11 -64 19 -15 7 -43 17 -62 21 -19 4 -53 15 -75 25 -86 39 -138 60 -149 60 -6 0 -24 7 -41 16 -16 8 -61 24 -100 35 -296 85 -322 89 -582 99 -260 10 -319 18 -448 62 -183 62 -339 172 -360 253 -18 66 16 285 44 285 12 0 20 -51 22 -150 2 -73 6 -91 31 -135 17 -27 44 -61 61 -75 32 -26 135 -80 151 -80 5 0 28 -8 50 -19 23 -10 61 -24 86 -31 25 -7 59 -17 75 -22 17 -5 95 -11 175 -13 150 -4 165 -1 47 10 -49 5 -74 12 -89 27 -32 32 -10 42 64 30 54 -9 192 -16 250 -13 10 1 24 16 33 37 8 21 20 34 27 31 14 -4 15 -21 3 -49 -11 -27 41 -24 56 3 13 25 7 166 -9 194 -6 11 -18 44 -27 73 -14 42 -21 52 -39 52 -21 0 -106 73 -106 92 0 30 99 -13 120 -53 19 -34 30 -5 30 76 -1 146 -32 202 -160 282 -47 30 -102 58 -124 64 -52 14 -84 51 -92 107 -9 59 10 338 32 457 8 49 31 130 50 178 19 49 43 121 53 161 42 158 85 287 132 396 28 63 62 142 76 175 22 53 100 206 290 575 33 63 70 142 82 175 38 102 141 215 281 308 58 39 60 40 60 31z m3830 -399 c0 -3 -18 -25 -41 -49 -22 -25 -42 -57 -43 -73 -2 -15 -5 -138 -6 -273 -1 -147 -5 -237 -10 -225 -5 11 -9 136 -9 277 l-1 257 25 27 c14 15 38 36 53 45 31 20 32 21 32 14z m-4122 -1259 c-2 -22 -7 -40 -13 -39 -14 3 -30 106 -20 129 6 16 9 14 22 -15 8 -18 13 -52 11 -75z m457 -320 c66 -32 145 -109 174 -169 20 -40 23 -60 19 -111 -6 -72 -31 -133 -59 -141 -30 -10 -39 3 -39 58 0 62 -38 136 -103 199 l-42 40 -70 -5 c-42 -3 -96 -15 -135 -32 -36 -14 -87 -29 -115 -32 -51 -5 -151 14 -228 44 -32 13 -36 18 -25 30 13 16 17 16 176 -3 74 -9 126 9 239 82 111 72 133 76 208 40z m3492 -448 c98 -52 166 -109 149 -126 -3 -2 -22 9 -43 25 -36 29 -143 83 -163 83 -16 0 -12 -10 24 -64 39 -60 76 -154 145 -368 56 -176 56 -185 -4 -227 -36 -25 -55 -21 -55 10 0 29 -28 23 -45 -12 -40 -76 -51 11 -15 116 14 40 20 84 20 140 0 103 -23 173 -118 356 -39 75 -69 139 -66 142 6 6 80 -27 171 -75z m-4627 -215 l70 -65 0 -82 c0 -79 7 -107 45 -191 20 -45 20 -53 10 -181 l-8 -92 42 -27 c44 -27 54 -62 16 -58 -285 34 -330 45 -396 96 -44 33 -117 51 -182 45 -38 -4 -60 -1 -82 12 -32 18 -47 60 -22 60 8 0 21 7 28 17 8 9 36 34 62 55 47 37 51 38 128 38 76 0 85 -3 80 -32 -5 -33 93 52 119 101 16 33 18 48 10 139 -5 56 -13 110 -18 119 -13 25 -25 111 -17 123 9 15 38 -3 115 -77z m-148 -90 c-2 -13 -8 -23 -13 -23 -11 0 -12 41 -2 66 6 16 7 16 13 -1 4 -10 5 -29 2 -42z m1318 -47 c9 -12 5 -16 -27 -21 -21 -3 -58 -10 -83 -15 -25 -5 -60 -12 -78 -15 -40 -8 -112 -78 -134 -131 -26 -59 -68 -165 -80 -199 -6 -16 -17 -44 -25 -62 -7 -17 -13 -38 -13 -46 0 -8 -7 -20 -15 -27 -13 -11 -15 -8 -15 21 0 18 4 46 9 63 29 92 46 153 47 166 3 29 53 125 82 156 48 53 176 108 272 117 19 2 38 5 41 5 4 1 12 -4 19 -12z m675 -126 c3 -5 -3 -10 -14 -10 -12 0 -21 5 -21 10 0 6 6 10 14 10 8 0 18 -4 21 -10z m3176 -22 c4 -60 -5 -126 -19 -142 -22 -24 -148 -106 -165 -106 -6 0 -23 -9 -37 -20 -32 -25 -60 -26 -60 -2 0 21 34 54 99 97 24 16 62 54 84 85 68 94 96 118 98 88z m-2941 -68 c0 -5 -4 -10 -9 -10 -6 0 -13 5 -16 10 -3 6 1 10 9 10 9 0 16 -4 16 -10z m101 -57 c44 -40 69 -86 69 -128 0 -41 -19 -29 -27 18 -5 33 -17 53 -60 95 -62 60 -46 73 18 15z m-1236 -53 c24 -33 34 -56 30 -69 -6 -20 -62 -39 -130 -43 -54 -4 -56 16 -5 83 22 29 40 59 40 66 0 28 30 11 65 -37z m-95 -184 c0 -11 -19 -15 -25 -6 -3 5 1 10 9 10 9 0 16 -2 16 -4z m1317 -208 c-3 -8 -6 -5 -6 6 -1 11 2 17 5 13 3 -3 4 -12 1 -19z m-1042 -503 c44 -19 118 -41 165 -50 47 -9 126 -33 175 -53 84 -33 98 -36 220 -39 179 -5 175 -4 175 -58 l0 -45 43 1 c46 0 184 23 193 32 3 3 -17 13 -45 22 -28 9 -51 20 -51 25 0 19 39 19 105 -1 39 -12 92 -27 119 -35 27 -7 52 -16 55 -19 13 -14 -20 -41 -75 -63 -97 -37 -156 -65 -209 -97 -79 -49 -128 -67 -171 -63 -57 4 -50 27 21 65 33 17 61 36 63 42 5 16 -45 13 -103 -5 -70 -23 -251 -24 -330 -2 -33 9 -80 22 -105 28 -78 20 -225 97 -304 160 -42 33 -82 60 -90 60 -7 0 -19 7 -26 16 -14 16 -18 93 -6 113 12 19 90 4 181 -34z m1640 -1592 c25 -27 41 -49 35 -51 -13 -5 -87 54 -101 79 -19 37 19 20 66 -28z m-148 -195 c-21 -7 -32 -7 -40 1 -8 8 0 11 29 10 39 -1 39 -1 11 -11z"/>
 <path d="M10355 7148 c-2 -7 -9 -38 -16 -68 -7 -30 -22 -85 -34 -122 -23 -70 -21 -82 9 -49 35 38 82 203 69 238 -7 17 -22 17 -28 1z"/>
 <path d="M5898 5230 c-47 -18 -96 -48 -116 -73 -15 -18 -27 -97 -15 -97 6 0 26 15 45 33 34 31 218 107 261 107 25 0 16 22 -14 37 -33 18 -105 14 -161 -7z"/>
 <path d="M7900 3428 c0 -99 31 -125 36 -30 3 60 -5 92 -22 92 -11 0 -14 -16 -14 -62z"/>
 <path d="M9410 3193 c0 -10 -7 -85 -15 -167 -8 -83 -12 -152 -10 -155 21 -20 74 167 78 269 2 64 2 65 -25 68 -22 3 -28 -1 -28 -15z"/>
 <path d="M9945 3124 c-14 -14 -16 -34 -13 -118 3 -91 6 -108 37 -169 18 -37 65 -102 102 -145 86 -96 138 -173 143 -209 1 -16 8 -37 14 -48 6 -11 21 -51 33 -90 38 -121 59 -124 59 -7 0 97 -21 183 -62 247 -55 87 -78 137 -78 172 0 43 16 42 34 -2 8 -19 20 -35 26 -35 6 0 30 18 53 39 77 71 118 192 83 242 -9 13 -16 31 -16 41 0 34 -19 27 -51 -22 -41 -60 -64 -64 -78 -12 -6 20 -11 46 -11 57 0 11 -5 27 -10 35 -7 11 -10 0 -10 -38 0 -50 -1 -53 -21 -47 -20 7 -21 5 -14 -21 4 -16 9 -50 12 -76 7 -71 -18 -63 -51 16 -33 76 -95 163 -135 188 -27 18 -30 18 -46 2z"/>
 <path d="M10090 3133 c0 -5 7 -18 15 -29 12 -16 14 -16 15 -3 0 9 -7 22 -15 29 -8 7 -15 8 -15 3z"/>
 <path d="M9789 2968 c-1 -7 -1 -16 0 -20 0 -3 3 -55 7 -115 6 -106 31 -206 69 -281 31 -61 46 -9 24 86 -6 26 -15 55 -20 65 -5 10 -7 21 -5 26 3 4 1 23 -5 42 -18 61 -21 73 -26 129 -5 54 -17 80 -34 80 -5 0 -10 -6 -10 -12z"/>
 <path d="M9625 2850 c-14 -22 24 -130 46 -130 12 0 2 60 -18 108 -14 34 -18 38 -28 22z"/>
 <path d="M9347 2793 c-15 -26 -16 -105 -2 -228 9 -77 13 -151 10 -166 -10 -44 21 -152 74 -256 65 -128 72 -148 59 -161 -8 -8 -17 -8 -30 -1 -40 22 -12 -54 49 -128 38 -47 75 -57 93 -24 17 34 12 113 -11 146 -36 54 -103 169 -126 218 -25 53 -15 70 27 47 12 -6 28 -9 36 -6 15 6 6 36 -26 86 -28 43 -109 262 -120 324 -5 33 -10 79 -10 102 0 40 -12 65 -23 47z"/>
 <path d="M10895 2755 c-3 -8 -8 -23 -11 -32 -12 -39 -34 -170 -34 -205 0 -76 30 -33 48 67 21 113 25 185 13 185 -6 0 -14 -7 -16 -15z"/>
 <path d="M10302 2708 c-7 -7 -12 -18 -12 -24 0 -16 61 -175 73 -191 19 -25 29 -13 23 25 -10 50 -59 202 -66 202 -3 0 -11 -5 -18 -12z"/>
 <path d="M10020 2614 c0 -9 8 -28 19 -42 10 -15 26 -43 36 -62 l18 -35 -39 35 c-22 19 -48 52 -59 73 -10 21 -23 36 -29 34 -6 -2 -16 -30 -23 -62 -6 -32 -16 -69 -22 -82 -17 -36 -13 -69 13 -136 39 -100 51 -146 39 -158 -7 -7 -18 -3 -36 15 -14 14 -31 26 -37 26 -25 0 -5 -34 59 -97 80 -79 126 -163 177 -320 28 -89 31 -108 22 -140 -13 -49 -42 -106 -62 -122 -12 -11 -14 -17 -5 -27 33 -40 111 19 135 104 14 47 15 67 5 131 -7 42 -18 121 -26 176 -8 55 -17 110 -21 123 -5 19 -2 24 16 29 21 6 22 10 17 62 -6 55 -18 97 -51 174 -18 41 -11 47 22 17 15 -14 22 -16 22 -7 0 31 -32 132 -60 186 -40 81 -130 153 -130 105z m6 -147 c6 -17 21 -55 33 -84 11 -29 17 -54 12 -57 -9 -6 -45 30 -54 54 -3 8 -12 31 -20 50 -10 24 -12 42 -6 59 11 28 18 23 35 -22z"/>
 <path d="M9110 2541 l-45 -28 -11 -194 c-13 -223 -15 -212 74 -369 64 -112 77 -127 117 -145 16 -7 61 -40 98 -74 69 -62 132 -101 164 -101 10 -1 35 -7 56 -14 37 -14 52 -10 39 10 -4 6 -42 34 -86 62 -86 55 -82 50 -211 292 -53 98 -48 113 19 53 58 -53 58 -26 2 79 -39 72 -96 247 -96 295 0 22 -41 122 -58 142 -17 21 -17 21 -62 -8z m117 -373 c-3 -7 -5 -2 -5 12 0 14 2 19 5 13 2 -7 2 -19 0 -25z"/>
 <path d="M9490 2511 c0 -39 86 -230 183 -406 9 -16 17 -47 17 -68 0 -21 18 -79 40 -133 22 -53 40 -113 40 -133 1 -57 38 -182 63 -210 12 -14 55 -59 95 -99 40 -41 79 -87 88 -103 8 -16 19 -29 24 -29 16 0 11 31 -11 67 -15 24 -20 44 -16 68 3 21 0 40 -8 52 -8 10 -15 25 -15 33 0 29 -150 293 -222 394 -31 44 -35 77 -13 120 17 31 14 38 -63 151 -18 27 -40 65 -48 83 -7 18 -29 52 -47 75 -19 23 -49 66 -67 95 -31 51 -40 61 -40 43z"/>
 <path d="M9800 2216 c0 -3 4 -16 10 -30 14 -37 32 -33 19 4 -6 17 -15 30 -20 30 -5 0 -9 -2 -9 -4z"/>
 <path d="M8945 2171 c-23 -35 -26 -45 -19 -88 11 -76 33 -120 82 -163 74 -66 79 -54 26 70 -23 54 -38 108 -41 148 -3 34 -9 65 -13 67 -4 3 -20 -13 -35 -34z"/>
 <path d="M8626 2045 c-47 -28 -56 -41 -56 -80 0 -65 33 -128 105 -201 75 -75 64 -69 435 -246 138 -66 168 -87 148 -100 -7 -4 -27 -8 -44 -8 -45 0 -94 -11 -94 -21 0 -19 95 -33 208 -30 69 1 78 13 32 39 -69 39 -18 42 130 7 58 -14 115 -27 128 -30 31 -7 28 3 -19 60 -29 35 -39 55 -35 71 7 28 -9 41 -70 57 -68 18 -159 87 -229 173 -89 109 -110 109 -103 0 3 -58 8 -70 37 -100 22 -23 31 -40 27 -51 -9 -24 -44 -13 -147 46 -48 27 -97 49 -111 49 -38 0 -145 58 -168 91 -32 45 -35 88 -10 137 23 44 22 84 -2 138 -15 31 -30 26 -42 -14 -12 -42 -32 -41 -53 3 -9 19 -19 35 -22 35 -3 0 -24 -11 -45 -25z"/>
 <path d="M5415 1927 c21 -33 154 -151 162 -144 8 9 -65 104 -101 131 -17 13 -42 27 -54 31 -23 7 -23 6 -7 -18z"/>
 <path d="M8886 1891 c-7 -10 60 -74 127 -119 29 -21 47 -28 47 -20 0 17 -28 58 -55 80 -36 30 -113 69 -119 59z"/>
 <path d="M8440 1851 c0 -13 169 -165 176 -158 9 8 -29 58 -75 100 -44 40 -101 73 -101 58z"/>
 <path d="M5390 1779 c0 -6 23 -34 50 -62 35 -36 47 -54 40 -61 -8 -8 -24 -4 -53 13 -76 43 -98 53 -103 48 -10 -9 57 -75 101 -102 37 -21 45 -31 45 -54 0 -26 9 -33 94 -76 107 -54 191 -70 215 -41 15 17 13 18 -41 30 -19 4 -28 13 -28 26 0 13 -7 20 -19 20 -10 0 -24 6 -30 13 -6 8 -28 19 -48 25 -53 16 -105 50 -97 63 4 6 22 8 48 4 l41 -7 -40 42 c-69 72 -175 144 -175 119z"/>
 <path d="M5732 1384 c-12 -8 -22 -19 -22 -23 0 -4 24 -21 53 -36 28 -16 85 -50 126 -77 66 -42 82 -48 128 -48 53 0 63 6 41 28 -8 8 -5 14 15 23 15 7 27 15 27 19 0 4 -38 17 -85 29 -86 23 -102 34 -64 46 56 18 -31 53 -136 54 -40 1 -68 -4 -83 -15z"/>
 <path d="M9595 1348 c-22 -6 -49 -13 -60 -18 -18 -6 -17 -8 10 -22 17 -8 56 -18 88 -21 31 -3 71 -12 87 -21 32 -16 40 -5 17 25 -14 19 -87 70 -96 68 -3 -1 -24 -6 -46 -11z"/>
 <path d="M9256 1302 c-6 -11 40 -21 109 -23 65 -2 71 -1 58 12 -16 16 -158 25 -167 11z"/>
 <path d="M8700 1296 c0 -8 75 -48 114 -62 69 -25 62 1 -9 35 -59 27 -105 39 -105 27z"/>
 <path d="M6368 1253 c6 -2 18 -2 25 0 6 3 1 5 -13 5 -14 0 -19 -2 -12 -5z"/>
 <path d="M8354 1224 c-6 -3 -47 -8 -90 -13 l-79 -8 77 -2 c91 -1 117 -10 183 -61 94 -72 245 -149 245 -124 -1 10 -216 170 -264 196 -31 17 -51 20 -72 12z"/>
 <path d="M10251 1205 c0 -5 11 -23 24 -40 14 -16 25 -25 25 -20 0 6 -11 24 -25 40 -13 17 -24 26 -24 20z"/>
 <path d="M7543 1185 c-54 -16 -108 -48 -211 -125 -85 -63 -276 -239 -321 -295 -14 -16 -45 -51 -70 -77 -24 -26 -42 -51 -38 -54 17 -17 124 84 207 196 82 109 247 238 399 311 95 46 112 67 34 44z"/>
 <path d="M6050 1146 c-19 -7 -36 -20 -38 -28 -4 -20 70 -74 165 -122 50 -25 71 -40 67 -50 -9 -22 77 -68 120 -64 45 4 51 -14 9 -27 -60 -17 -39 -59 35 -71 49 -8 55 -29 11 -38 -29 -6 -31 -8 -25 -37 3 -17 6 -42 6 -55 0 -13 4 -24 9 -24 4 0 6 10 4 23 -5 27 21 66 36 52 5 -5 12 -49 14 -97 3 -47 8 -91 11 -97 10 -16 52 -13 89 5 97 49 277 193 277 222 0 14 -46 16 -55 2 -9 -15 -35 -12 -35 3 0 14 49 62 199 197 76 67 148 156 136 168 -2 3 -42 -34 -87 -80 -105 -108 -198 -159 -198 -109 0 11 5 23 11 27 14 8 6 79 -11 99 -17 21 -39 19 -131 -11 -44 -15 -82 -24 -85 -21 -4 3 12 27 34 54 48 56 43 63 -43 62 -89 -1 -150 -12 -150 -27 0 -16 -144 -81 -188 -85 -22 -1 -32 3 -35 15 -2 12 10 21 47 33 48 16 68 35 37 35 -21 0 -31 21 -15 31 12 8 12 11 -1 19 -21 14 -178 11 -220 -4z"/>
 <path d="M7629 1022 c-24 -21 -74 -60 -111 -86 -86 -61 -150 -131 -215 -237 -61 -101 -75 -129 -184 -391 -30 -72 -45 -148 -35 -175 6 -14 10 -12 26 15 39 63 130 82 130 26 l0 -27 62 7 c67 8 133 32 213 80 89 52 187 121 192 133 3 7 9 13 14 13 4 0 43 26 86 59 43 32 107 78 142 102 84 58 87 69 18 62 l-54 -5 -7 32 c-3 18 -6 52 -6 76 0 50 -15 57 -46 23 -25 -28 -67 -49 -98 -49 -26 0 -28 5 -50 103 -9 39 -31 34 -65 -16 -32 -48 -59 -73 -67 -64 -3 3 31 80 76 172 44 91 78 170 75 176 -13 20 -54 7 -96 -29z m-171 -210 c-13 -19 -59 -62 -65 -62 -10 0 0 20 28 53 17 20 35 34 40 31 6 -3 5 -12 -3 -22z"/>
 <path d="M7026 893 c-79 -89 -122 -151 -112 -160 8 -9 53 41 129 142 65 85 71 95 59 95 -5 0 -39 -35 -76 -77z"/>
 <path d="M9860 961 c0 -4 17 -20 38 -33 20 -14 75 -60 122 -102 84 -75 100 -86 100 -66 0 16 -147 158 -192 186 -38 24 -68 31 -68 15z"/>
 <path d="M8221 823 c-53 -128 -162 -256 -324 -378 -62 -46 -154 -122 -205 -168 -88 -81 -188 -147 -242 -160 -147 -34 -162 -40 -172 -62 -13 -29 -4 -55 18 -55 12 0 15 6 10 24 -7 28 7 36 64 36 36 0 39 -2 37 -28 l-2 -27 186 -2 c186 -2 187 -2 210 23 12 13 28 24 34 24 6 0 30 16 52 35 23 19 44 35 47 35 3 0 34 20 69 45 36 25 79 48 97 51 l32 7 -26 -51 c-33 -65 -33 -72 3 -72 17 0 60 -7 98 -16 57 -13 79 -14 135 -4 81 14 93 9 73 -30 -8 -16 -15 -34 -15 -40 0 -13 77 -13 85 0 8 13 105 13 105 0 0 -7 21 -10 52 -9 49 3 55 6 115 65 51 50 63 68 63 93 0 43 -40 104 -124 185 -92 90 -119 106 -164 99 -25 -4 -33 -3 -28 5 4 7 14 12 22 12 8 0 17 6 20 14 3 8 20 18 37 22 34 7 57 21 57 35 0 16 -29 10 -80 -16 -76 -39 -98 -32 -64 20 20 31 19 31 -49 0 -30 -14 -61 -23 -68 -20 -19 8 -80 134 -79 163 0 15 -5 22 -12 19 -9 -3 -13 -29 -13 -83 l0 -79 -35 3 c-59 6 -63 17 -39 112 11 47 27 95 35 107 18 28 22 85 8 90 -7 2 -17 -9 -23 -24z m103 -335 c-6 -15 -74 -51 -74 -40 0 5 9 18 20 30 22 24 63 31 54 10z m143 -25 c-4 -3 -7 0 -7 7 0 7 3 10 7 7 3 -4 3 -10 0 -14z m283 -321 c0 -22 -116 -112 -145 -112 -26 0 -17 14 28 42 23 15 53 39 67 53 23 24 50 34 50 17z"/>
 <path d="M7167 819 c-33 -25 -92 -108 -83 -117 7 -6 135 117 136 131 0 13 -25 7 -53 -14z"/>
 <path d="M8080 764 c0 -48 3 -65 13 -62 20 7 32 74 19 103 -20 44 -32 28 -32 -41z"/>
 <path d="M9260 770 c26 -37 21 -54 -20 -75 -29 -15 -32 -15 -65 11 -50 38 -70 27 -61 -33 3 -26 13 -54 21 -63 20 -22 19 -44 0 -36 -8 3 -22 9 -30 12 -24 10 -17 -10 13 -38 30 -29 127 -78 155 -78 10 0 21 8 24 18 4 9 15 29 26 44 14 19 18 35 14 58 -4 18 -2 39 5 50 11 16 8 24 -15 48 -15 16 -25 31 -22 34 4 3 25 0 48 -7 23 -6 58 -15 77 -19 33 -6 34 -6 14 9 -31 21 -181 95 -194 95 -6 0 -2 -14 10 -30z"/>
 <path d="M6710 520 c-18 -14 -21 -20 -9 -20 9 0 24 9 34 20 23 26 8 26 -25 0z"/>
 <path d="M9450 341 c0 -17 65 -64 128 -92 34 -16 62 -34 62 -41 0 -7 -17 -21 -38 -30 -47 -22 -172 -138 -172 -160 0 -14 16 -17 123 -17 l124 -1 13 54 c7 30 10 69 6 86 -6 31 -5 32 22 26 70 -18 85 -19 80 -6 -2 8 -21 19 -42 26 -21 8 -67 36 -102 64 -35 27 -68 50 -74 50 -6 0 -33 11 -60 25 -53 27 -70 31 -70 16z"/>
 <path d="M9246 85 c-76 -33 -116 -59 -116 -77 0 -4 37 -8 83 -8 l82 0 33 50 c17 27 32 54 32 60 0 18 -33 11 -114 -25z"/>
 </g>
<g id="layer104" fill="#ebad04" stroke="none">
 <path d="M5850 8991 c0 -23 155 -105 177 -93 10 6 -1 20 -46 55 -45 36 -68 47 -95 47 -20 0 -36 -4 -36 -9z"/>
 <path d="M5989 8979 c24 -23 54 -19 45 6 -4 9 -18 15 -37 15 l-31 0 23 -21z"/>
 <path d="M6190 8989 c0 -20 52 -99 94 -142 41 -43 133 -99 181 -111 45 -11 41 19 -11 89 -27 37 -66 91 -88 121 l-39 54 -68 0 c-43 0 -69 -4 -69 -11z"/>
 <path d="M7610 8975 c0 -35 -34 -116 -94 -225 -29 -52 -61 -126 -71 -165 -10 -38 -33 -103 -52 -144 -18 -40 -33 -84 -33 -97 0 -26 -17 -41 -32 -26 -9 9 14 79 47 142 14 27 45 110 45 123 0 4 -9 7 -19 7 -14 0 -24 -13 -36 -47 -30 -86 -48 -128 -59 -138 -12 -11 -52 -126 -49 -137 2 -5 -13 -55 -32 -113 -32 -94 -35 -115 -33 -195 2 -50 5 -90 8 -90 3 0 10 10 16 23 22 43 147 262 153 267 3 3 50 70 103 150 100 150 225 294 335 384 34 28 108 89 165 135 158 130 247 175 154 78 -28 -29 -62 -65 -75 -80 -22 -26 -22 -27 -3 -27 11 0 22 4 24 9 2 5 44 39 93 75 50 37 95 71 102 76 6 5 23 12 37 16 72 18 -16 24 -340 24 l-354 0 0 -25z"/>
 <path d="M8760 8991 c0 -5 16 -21 37 -36 20 -16 68 -57 107 -93 39 -35 96 -83 126 -106 30 -22 57 -43 60 -46 3 -3 18 -16 34 -28 16 -12 75 -65 130 -116 56 -51 126 -115 157 -142 108 -93 334 -297 351 -315 9 -11 20 -19 25 -19 4 0 31 -23 58 -51 28 -28 66 -62 85 -75 51 -34 168 -148 240 -234 35 -41 72 -81 82 -88 10 -7 18 -18 18 -23 0 -5 25 -47 57 -92 62 -90 116 -209 135 -296 14 -66 14 -187 0 -204 -6 -7 -13 -29 -17 -50 -4 -20 -11 -40 -16 -43 -16 -9 -56 -98 -52 -111 3 -8 15 -11 31 -7 l27 5 -30 -23 c-40 -30 -118 -116 -126 -136 -4 -10 -7 -133 -8 -274 -2 -255 -2 -257 23 -305 14 -27 68 -91 126 -148 127 -125 171 -182 204 -265 15 -36 33 -77 41 -92 8 -14 15 -35 15 -45 0 -25 90 -199 142 -276 22 -32 57 -97 80 -145 22 -48 64 -136 94 -197 46 -93 60 -135 90 -270 45 -208 73 -313 91 -350 10 -19 17 -65 19 -133 2 -56 6 -106 8 -111 3 -4 13 -43 21 -87 9 -43 23 -95 31 -114 9 -19 22 -98 30 -175 9 -86 20 -148 30 -163 12 -18 14 -37 8 -78 -7 -60 15 -226 49 -359 49 -198 58 -254 63 -410 l6 -160 -31 -84 c-30 -79 -31 -90 -31 -220 1 -75 1 -145 0 -156 -2 -33 7 -70 24 -103 9 -17 16 -48 16 -68 0 -61 -29 -202 -65 -319 -30 -97 -48 -177 -70 -308 -8 -51 -55 -101 -123 -133 -31 -14 -72 -33 -89 -41 -18 -8 -31 -19 -28 -23 3 -5 -7 -10 -21 -12 -42 -5 -66 -47 -73 -124 l-6 -67 -92 -47 c-97 -48 -133 -75 -133 -96 0 -7 -16 -25 -35 -40 l-35 -26 0 -123 0 -122 -122 -5 c-107 -5 -134 -9 -203 -37 -45 -17 -103 -45 -130 -62 -69 -43 -153 -127 -166 -166 -7 -21 -18 -34 -32 -37 -107 -20 -139 -30 -153 -43 -9 -9 -12 -19 -6 -25 5 -5 1266 -11 3085 -15 l3077 -6 0 4501 0 4502 -1409 0 c-837 0 -1412 -4 -1415 -9 -4 -5 -7 -27 -8 -49 -1 -34 -5 -41 -33 -51 -17 -6 -39 -11 -48 -11 -22 0 -119 -55 -142 -80 -10 -11 -21 -17 -26 -14 -5 3 -19 -1 -31 -8 -13 -6 -28 -13 -34 -14 -21 -3 -94 -54 -94 -65 0 -6 -6 -9 -14 -6 -17 7 -39 -16 -28 -28 4 -4 -5 -5 -20 -1 -21 5 -30 1 -42 -15 -8 -12 -19 -18 -25 -15 -5 4 -27 0 -47 -9 -44 -18 -52 -19 -36 -3 22 22 13 44 -25 59 -20 8 -51 13 -70 12 -24 -2 -33 2 -33 12 0 37 -151 192 -173 178 -5 -3 -15 1 -21 9 -6 8 -47 36 -92 61 l-81 47 -212 0 -212 0 -73 -67 c-39 -38 -81 -81 -93 -96 -20 -27 -20 -29 -3 -62 20 -40 30 -49 95 -97 87 -62 193 -108 252 -108 28 0 54 4 57 9 3 5 36 12 73 16 74 7 129 -7 185 -46 22 -16 51 -23 110 -28 l80 -6 -63 -41 c-89 -57 -155 -94 -171 -95 -16 0 -102 -45 -158 -83 -24 -15 -75 -39 -114 -53 -38 -13 -82 -31 -98 -39 -15 -8 -28 -11 -28 -7 0 5 -5 0 -10 -9 -11 -18 -156 -78 -190 -78 -11 0 -41 -19 -66 -42 -26 -24 -101 -79 -168 -123 -75 -51 -122 -88 -124 -100 -2 -11 -15 -30 -30 -43 -22 -18 -24 -24 -13 -31 12 -8 12 -12 2 -25 -8 -9 -21 -16 -30 -16 -16 -1 -51 -49 -86 -120 -10 -19 -31 -51 -47 -72 -15 -20 -35 -52 -43 -70 -7 -19 -21 -40 -29 -48 -9 -7 -16 -23 -16 -35 0 -12 -7 -28 -15 -35 -8 -7 -15 -21 -15 -31 0 -25 -51 -114 -91 -159 -17 -19 -28 -30 -25 -23 4 6 8 24 10 40 3 28 31 132 68 253 10 36 22 89 25 118 3 28 10 52 15 52 6 0 7 11 4 25 -6 22 32 119 63 160 4 5 17 37 28 70 27 77 37 181 22 224 l-12 33 -23 -25 c-21 -23 -27 -24 -67 -15 -37 8 -56 5 -115 -16 -73 -25 -106 -50 -122 -91 -6 -15 -18 -25 -29 -25 -10 0 -25 -7 -32 -16 -24 -29 -102 -56 -166 -59 -72 -4 -83 -9 -83 -36 0 -29 -14 -23 -53 21 -68 75 -88 114 -93 182 -9 109 -49 214 -117 308 -22 30 -43 57 -47 60 -4 3 -45 59 -93 125 -123 172 -176 223 -216 210 -11 -3 -33 1 -48 9 -32 16 -243 230 -243 246 0 6 -107 10 -300 10 -166 0 -300 -4 -300 -9z m1833 -1107 c8 -8 -17 -77 -30 -81 -15 -5 -71 47 -57 53 6 3 20 11 30 19 20 15 46 19 57 9z m-7 -143 c-4 -5 -13 -8 -22 -4 -11 4 -12 8 -3 20 14 16 36 2 25 -16z"/>
 <path d="M10807 8973 c31 -45 113 -211 113 -228 0 -29 -26 -15 -90 51 -89 89 -113 99 -204 78 -39 -9 -83 -18 -98 -21 -35 -7 -51 -27 -43 -53 4 -12 59 -76 122 -143 102 -107 153 -179 153 -218 0 -16 79 -175 100 -202 12 -14 25 -40 31 -57 7 -20 18 -30 31 -30 11 0 22 -8 25 -20 7 -28 18 -25 47 13 24 32 26 40 28 189 l3 155 27 -20 c15 -11 31 -18 34 -14 7 7 -13 119 -25 146 -70 143 -150 294 -159 300 -5 3 -19 27 -32 54 -20 40 -28 47 -52 47 l-29 0 18 -27z"/>
 <path d="M11333 8981 c-8 -12 -28 -20 -64 -24 -29 -4 -56 -10 -61 -15 -12 -12 89 -61 142 -68 40 -5 50 -2 87 25 24 17 46 31 50 32 5 0 21 16 36 35 l29 34 -104 0 c-90 0 -105 -2 -115 -19z"/>
 <path d="M12640 8955 c-12 -43 -11 -47 9 -69 20 -21 22 -30 15 -71 -7 -47 -6 -48 17 -41 13 4 44 12 69 16 59 12 136 40 183 67 41 25 49 56 17 73 -11 6 -20 19 -20 30 0 32 -33 40 -158 40 l-119 0 -13 -45z"/>
 <path d="M11063 8749 c3 -20 14 -56 25 -80 11 -24 30 -74 42 -111 13 -38 27 -68 31 -68 5 0 9 -12 9 -27 0 -32 32 -139 54 -180 34 -65 119 -116 216 -129 65 -9 180 22 180 48 0 20 -36 48 -65 49 -11 0 -40 10 -65 22 -36 18 -51 33 -72 77 -16 30 -28 62 -28 72 0 75 -116 216 -235 287 -22 13 -53 36 -69 50 l-29 26 6 -36z"/>
 <path d="M7760 8545 c-10 -12 -10 -15 4 -15 9 0 16 7 16 15 0 8 -2 15 -4 15 -2 0 -9 -7 -16 -15z"/>
 <path d="M7893 8493 c-3 -10 -9 -22 -12 -28 -3 -5 6 -3 19 6 13 9 26 21 28 27 6 19 -28 14 -35 -5z"/>
 <path d="M7695 8480 c-11 -17 5 -32 21 -19 7 6 11 15 8 20 -7 12 -21 11 -29 -1z"/>
 <path d="M7534 8242 c-57 -53 -134 -145 -134 -159 0 -5 -13 -29 -29 -54 -54 -80 -51 -133 3 -69 14 17 39 42 56 57 31 26 31 26 37 4 3 -12 13 -21 24 -21 13 0 19 -7 19 -24 0 -14 5 -28 10 -31 23 -14 54 11 125 103 64 83 72 99 60 111 -12 12 -16 12 -30 -2 -8 -9 -22 -14 -29 -11 -8 3 -17 1 -21 -5 -11 -19 -41 -12 -52 11 -8 17 -5 29 14 56 26 40 29 55 10 70 -10 8 -25 -1 -63 -36z"/>
 <path d="M8460 7941 c-44 -8 -50 -32 -15 -59 l27 -21 -39 -17 -38 -17 59 -9 c67 -11 86 -6 86 20 0 11 16 27 40 41 44 25 47 32 24 55 -16 17 -75 19 -144 7z"/>
 <path d="M8030 7853 c-79 -53 -190 -189 -190 -234 0 -19 4 -20 35 -15 34 7 35 6 35 -26 0 -18 -4 -48 -9 -66 -9 -29 -7 -34 22 -55 18 -13 66 -41 107 -62 41 -20 82 -44 91 -51 8 -8 20 -14 25 -14 9 0 168 -62 219 -85 17 -8 48 -16 70 -19 48 -6 193 -31 255 -44 25 -5 79 -23 120 -40 41 -17 100 -38 130 -47 79 -23 129 -48 228 -112 167 -108 208 -153 258 -286 39 -104 72 -166 116 -217 52 -59 50 -57 83 -122 15 -31 59 -95 96 -142 37 -47 71 -95 74 -106 3 -11 11 -20 16 -20 5 0 9 -5 9 -11 0 -6 6 -25 14 -42 8 -18 16 -43 19 -57 7 -38 41 -130 60 -165 34 -61 67 -131 67 -142 0 -6 7 -24 14 -40 8 -15 27 -67 41 -115 28 -96 45 -115 90 -98 14 5 43 10 64 10 36 0 40 3 59 48 24 57 31 118 33 277 1 109 -19 277 -36 305 -3 6 -8 33 -10 62 -5 61 -18 79 -35 47 -12 -21 -10 -78 5 -179 4 -26 -1 -19 -21 30 -14 36 -30 81 -34 100 -25 107 -41 167 -50 185 -12 22 -13 50 -10 215 1 63 -3 150 -8 193 -9 68 -17 90 -65 170 -54 90 -95 192 -83 204 3 4 12 -2 20 -12 22 -31 36 -9 29 48 -3 29 -9 57 -13 62 -16 21 -70 126 -70 136 0 5 -4 15 -10 22 -5 7 -28 36 -50 64 -51 67 -79 85 -136 87 -41 2 -50 7 -81 44 -19 23 -41 42 -48 42 -7 0 -19 10 -28 23 -27 41 -54 67 -70 67 -8 0 -28 7 -43 15 -16 8 -44 15 -62 15 -26 0 -33 -4 -30 -17 2 -10 18 -25 35 -33 18 -8 33 -17 33 -20 0 -3 -19 -16 -41 -28 -31 -18 -40 -28 -36 -43 3 -11 -1 -26 -9 -33 -20 -20 -35 -63 -28 -81 4 -9 -1 -18 -11 -21 -16 -7 -83 9 -118 27 -24 13 -55 -5 -59 -33 -2 -15 7 -32 24 -50 53 -50 11 -71 -62 -32 -14 7 -49 20 -78 28 -29 8 -64 24 -79 36 -14 11 -31 20 -37 20 -6 0 -27 15 -46 33 -38 36 -182 110 -296 152 -39 14 -83 38 -97 53 -14 15 -44 38 -67 52 l-42 25 35 10 c30 8 34 13 26 28 -6 9 -19 17 -30 17 -11 0 -32 6 -47 14 -15 7 -49 17 -77 21 -27 4 -61 13 -75 20 -44 23 -102 26 -130 8z m1808 -554 c7 -11 17 -32 23 -45 l9 -25 -30 21 c-19 14 -30 30 -30 46 0 29 11 31 28 3z m49 -96 c-4 -3 -7 0 -7 7 0 7 3 10 7 7 3 -4 3 -10 0 -14z m-697 -121 c0 -10 5 -23 12 -30 17 -17 -2 -14 -36 7 -42 24 -44 41 -7 41 23 0 31 -5 31 -18z"/>
 <path d="M7508 7853 c7 -3 16 -2 19 1 4 3 -2 6 -13 5 -11 0 -14 -3 -6 -6z"/>
 <path d="M10987 7823 c-10 -10 -8 -51 3 -58 13 -8 25 44 13 56 -5 5 -12 6 -16 2z"/>
 <path d="M7330 7119 c-41 -4 -111 -10 -154 -14 -44 -3 -99 -12 -123 -20 -24 -8 -56 -15 -71 -15 -62 0 -186 -87 -260 -182 -25 -32 -50 -58 -56 -58 -19 1 -64 54 -68 80 -5 37 -39 38 -66 1 -34 -47 -65 -146 -58 -189 12 -73 12 -75 -22 -98 -18 -13 -38 -25 -45 -27 -30 -11 11 -20 100 -22 155 -4 337 -21 359 -33 12 -6 38 -37 60 -69 67 -100 85 -113 156 -115 101 -3 132 2 152 24 42 45 184 81 253 63 l28 -7 -25 -18 -25 -19 40 -16 c22 -8 54 -22 70 -29 17 -8 51 -22 78 -32 43 -15 49 -20 46 -40 -1 -13 22 -20 67 -23 42 -2 89 -22 105 -45 7 -8 168 -2 255 10 40 6 42 4 71 -39 17 -24 36 -67 42 -95 7 -28 19 -53 27 -56 9 -3 13 -10 10 -15 -10 -15 19 -20 77 -14 51 5 57 4 81 -22 34 -37 43 -71 24 -93 -8 -9 -23 -32 -32 -51 -15 -32 -15 -36 1 -55 10 -12 24 -27 33 -34 13 -11 12 -15 -7 -30 -13 -10 -23 -31 -25 -52 -2 -23 -8 -35 -18 -35 -27 0 -29 -19 -4 -42 26 -24 30 -38 14 -48 -5 -3 -10 -15 -10 -26 0 -14 9 -21 31 -26 19 -4 34 -14 39 -29 10 -26 49 -48 100 -58 77 -14 85 -16 88 -26 2 -5 9 -10 16 -10 15 0 61 -48 70 -73 3 -11 15 -21 26 -24 11 -3 20 -12 20 -19 0 -8 11 -19 25 -24 14 -5 27 -20 31 -35 3 -13 10 -22 16 -19 5 3 16 0 24 -7 13 -11 19 -9 35 11 10 14 19 32 19 41 0 17 30 49 47 49 16 0 43 46 43 74 0 14 5 37 11 53 6 15 13 88 14 161 3 116 6 135 24 159 13 15 19 34 15 45 -3 10 0 42 6 72 11 53 10 55 -34 148 -44 94 -98 169 -141 198 -13 8 -65 45 -116 81 -114 81 -140 97 -249 150 -123 61 -165 94 -184 143 -18 47 -60 72 -190 117 -57 20 -73 30 -96 65 -37 53 -89 98 -150 129 -26 13 -75 48 -107 78 -59 53 -135 103 -230 150 -60 30 -156 38 -283 26z m1240 -1389 c11 -6 17 -17 14 -25 -5 -11 -17 -13 -52 -8 -55 7 -56 8 -49 28 7 17 58 20 87 5z"/>
 <path d="M6293 6373 c-7 -2 -13 -10 -13 -17 0 -6 -16 -20 -35 -30 -35 -19 -80 -64 -102 -104 -22 -37 -15 -70 22 -111 38 -41 90 -61 164 -61 45 0 52 13 21 40 -13 12 -24 39 -30 75 -10 63 -7 75 18 75 35 0 60 -29 72 -83 17 -84 95 -145 215 -168 101 -19 124 -21 152 -14 25 6 26 8 11 19 -9 6 -21 31 -27 54 -7 23 -16 42 -21 42 -5 0 -39 30 -76 67 l-68 66 45 13 c24 8 54 14 66 14 20 0 40 16 31 25 -2 2 -28 11 -58 18 -66 18 -180 67 -180 79 0 8 -186 10 -207 1z"/>
 <path d="M7135 6330 c-8 -13 20 -24 40 -16 8 3 15 10 15 16 0 13 -47 13 -55 0z"/>
 <path d="M7623 6273 c-24 -9 -15 -53 12 -63 14 -5 25 -14 25 -20 0 -18 45 -6 48 12 2 10 -6 31 -18 48 -20 28 -39 35 -67 23z"/>
 <path d="M6765 6251 c-31 -5 -41 -11 -43 -27 -2 -16 4 -23 24 -28 15 -4 61 -27 103 -52 101 -59 208 -92 284 -86 31 2 57 7 57 11 0 4 -19 14 -42 23 l-43 15 1 77 c1 66 -1 76 -16 76 -10 0 -20 -6 -23 -14 -5 -12 -11 -12 -44 0 -39 13 -183 17 -258 5z"/>
 <path d="M7630 6155 c-7 -9 -21 -13 -31 -10 -27 9 -37 -22 -30 -92 11 -105 -34 -134 -89 -58 -16 21 -34 35 -47 35 -13 0 -23 -1 -23 -2 0 -2 16 -34 35 -73 19 -38 35 -77 35 -85 0 -9 4 -20 10 -26 6 -6 1 -25 -15 -56 l-24 -45 22 -20 c35 -32 59 -41 100 -36 l39 4 -7 -33 c-4 -18 -27 -72 -52 -120 -53 -105 -59 -164 -24 -221 27 -44 29 -77 7 -140 -9 -26 -16 -53 -16 -59 0 -6 -16 -35 -36 -63 -19 -29 -40 -72 -45 -96 -10 -41 -8 -45 16 -65 24 -19 26 -25 19 -72 -6 -44 -4 -52 10 -52 9 0 16 5 16 10 0 18 46 11 65 -10 11 -13 25 -18 39 -14 19 4 26 -6 58 -73 21 -43 40 -94 44 -113 4 -19 27 -65 53 -101 43 -63 49 -68 101 -79 30 -7 70 -17 89 -22 67 -20 151 -122 123 -150 -13 -13 40 -84 153 -207 106 -115 145 -179 126 -209 -8 -13 -258 -38 -291 -29 -33 9 -56 24 -48 32 3 4 24 9 47 12 54 7 58 27 16 78 -35 44 -157 155 -169 155 -3 0 -6 -7 -6 -16 0 -13 -6 -11 -25 10 -22 24 -55 35 -55 19 0 -5 4 -35 9 -68 5 -33 12 -120 15 -194 4 -74 11 -140 17 -148 12 -13 94 -18 123 -7 9 3 16 17 16 30 0 13 6 24 13 24 50 0 187 -66 187 -89 0 -11 -43 -22 -105 -25 -24 -1 -48 -6 -52 -9 -15 -16 17 -26 100 -31 48 -2 93 -8 100 -13 6 -4 57 -8 112 -9 207 -2 422 -16 487 -31 97 -22 332 -15 371 11 48 33 35 44 -40 33 -111 -16 -585 16 -647 44 -30 14 -34 34 -8 44 96 38 242 48 309 20 24 -10 94 -20 188 -26 82 -5 170 -12 194 -15 39 -6 46 -4 67 22 14 16 36 49 50 74 14 25 36 63 49 85 39 68 45 223 10 271 -13 18 -14 18 -37 -3 -40 -38 -74 -45 -126 -27 -26 8 -61 23 -78 33 -26 16 -74 32 -264 93 -22 7 -75 49 -143 115 -103 99 -110 104 -127 88 -18 -16 -24 -12 -127 85 -59 56 -125 125 -145 154 -20 28 -44 59 -53 69 -8 9 -15 25 -15 35 0 18 -58 113 -88 144 -83 85 -110 160 -116 323 -4 110 -4 110 -33 125 -74 39 -83 53 -83 125 0 58 -4 71 -29 103 -17 21 -31 52 -33 72 -2 23 -8 35 -18 35 -22 0 -24 34 -5 56 10 10 33 21 52 25 40 8 39 26 -3 31 -16 2 -35 13 -43 23 -7 11 -21 20 -31 20 -9 0 -31 15 -48 33 -17 17 -47 45 -65 60 -24 20 -33 34 -30 48 3 10 0 26 -7 34 -8 9 -13 49 -14 100 -1 62 -5 88 -17 100 -14 15 -17 15 -29 0z m333 -2420 c18 -13 18 -14 -2 -24 -48 -26 -100 1 -53 28 23 14 33 13 55 -4z"/>
 <path d="M6126 5749 c-44 -26 -89 -204 -56 -224 6 -3 10 -17 10 -29 0 -13 8 -43 19 -66 17 -39 20 -40 32 -23 8 10 23 23 34 29 29 16 37 92 19 173 -9 36 -14 83 -12 105 3 44 -11 55 -46 35z"/>
 <path d="M6655 5729 c-16 -5 -59 -12 -95 -15 -36 -3 -69 -9 -75 -13 -30 -23 -165 -18 -215 8 -8 5 -30 6 -47 4 l-32 -5 17 -37 c9 -20 22 -42 29 -48 6 -7 14 -39 17 -70 18 -174 51 -279 90 -289 12 -3 58 -1 103 5 89 11 147 6 164 -15 6 -8 19 -14 28 -14 22 0 146 -91 193 -141 20 -21 41 -39 47 -39 6 0 11 18 11 39 0 32 6 44 35 67 20 16 52 60 72 97 20 38 51 80 68 93 18 14 45 42 60 64 27 39 27 41 15 105 -12 66 -12 66 15 95 15 16 25 36 23 47 -3 15 -12 18 -56 15 -29 -2 -52 1 -52 6 0 5 -29 13 -64 17 -36 3 -89 13 -118 21 -59 15 -187 17 -233 3z"/>
 <path d="M10306 5689 c-9 -45 -7 -89 3 -89 14 0 21 27 21 76 0 51 -15 59 -24 13z"/>
 <path d="M8212 5624 c-12 -22 -4 -54 14 -54 9 0 14 11 14 29 0 35 -15 48 -28 25z"/>
 <path d="M5816 5323 c-39 -6 -125 -94 -159 -161 -42 -83 -33 -189 24 -307 10 -22 19 -46 19 -52 0 -7 5 -13 10 -13 14 0 13 46 -2 73 -6 12 -12 48 -14 81 -1 32 -7 63 -13 69 -15 15 -14 42 7 110 14 50 26 68 71 108 30 27 59 49 64 49 10 0 36 30 37 43 0 4 -3 6 -7 6 -5 -1 -21 -4 -37 -6z"/>
 <path d="M5905 5217 c-74 -29 -118 -67 -101 -85 6 -6 144 35 166 49 8 5 23 12 33 15 9 4 17 13 17 20 0 17 -71 18 -115 1z"/>
 <path d="M10189 5215 c-4 -3 -26 -8 -49 -11 -24 -3 -51 -9 -61 -14 -25 -14 -98 -130 -105 -168 -16 -84 75 -192 244 -291 123 -73 262 -207 175 -169 -16 7 -46 27 -68 44 -42 33 -110 62 -120 52 -4 -3 0 -19 8 -35 8 -15 20 -53 27 -83 7 -30 16 -59 20 -65 4 -5 11 -29 15 -51 7 -44 72 -165 92 -172 7 -2 18 8 24 22 7 14 17 26 22 26 6 0 19 8 29 17 30 27 45 2 20 -34 -11 -16 -34 -58 -51 -93 -17 -36 -38 -77 -48 -92 -9 -15 -14 -30 -10 -34 13 -13 76 27 106 69 17 23 35 47 40 54 6 6 17 29 25 50 8 21 28 73 44 116 l30 77 -24 47 -25 46 33 -7 c35 -7 94 -58 104 -90 4 -11 13 -26 20 -34 8 -7 12 -18 8 -23 -3 -6 -1 -16 6 -24 13 -16 16 -92 6 -153 -5 -28 -15 -46 -29 -54 -12 -6 -37 -24 -55 -39 -18 -16 -42 -29 -52 -29 -11 0 -20 -4 -20 -10 0 -5 -17 -12 -37 -16 -21 -3 -49 -14 -63 -22 -14 -9 -51 -29 -83 -45 -32 -15 -60 -34 -63 -42 -4 -8 3 -35 15 -60 12 -25 21 -53 21 -64 0 -21 146 -244 182 -279 16 -15 45 -25 84 -31 37 -5 47 -9 27 -10 -55 -2 -128 19 -156 44 -14 14 -30 25 -34 25 -9 0 -73 75 -73 85 0 4 -13 24 -30 45 -16 21 -30 45 -30 53 0 8 -7 20 -15 27 -8 7 -15 24 -15 37 0 18 -23 49 -80 107 -86 89 -94 110 -72 186 50 167 54 193 42 270 -6 41 -18 88 -26 104 -8 16 -14 35 -14 42 0 7 -9 19 -19 26 -11 8 -19 23 -18 33 1 12 -7 24 -20 30 -13 5 -22 16 -20 25 1 9 -6 15 -18 15 -21 0 -21 1 -5 -90 11 -55 -2 -233 -20 -279 -6 -16 -10 -117 -10 -239 0 -117 -1 -233 -2 -258 -2 -81 42 -162 105 -195 40 -21 24 -36 -29 -28 -24 3 -51 3 -60 0 -16 -6 -15 -8 2 -21 14 -10 49 -14 127 -15 115 0 139 -8 232 -76 51 -37 147 -81 206 -94 114 -25 215 -1 319 77 105 79 209 268 209 381 1 132 -7 209 -22 246 -10 21 -20 64 -23 95 -4 31 -13 71 -20 90 -8 18 -14 43 -14 55 0 12 -9 39 -20 61 -11 22 -20 45 -20 53 0 33 -140 318 -186 377 -19 25 -34 49 -34 54 0 11 -193 206 -252 254 -54 44 -168 94 -242 108 -28 5 -62 12 -76 15 -14 3 -28 3 -31 -1z m264 -441 c12 -15 30 -35 40 -44 18 -17 18 -18 -4 -33 -14 -11 -28 -13 -38 -7 -18 10 -101 95 -101 104 0 3 18 6 40 6 31 0 45 -6 63 -26z m-53 -348 c0 -13 -7 -26 -15 -30 -11 -4 -15 1 -15 18 0 12 3 26 7 29 13 14 23 6 23 -17z m565 -221 c10 -27 24 -64 31 -81 8 -18 13 -43 12 -56 -1 -13 4 -45 11 -71 30 -104 -25 -274 -122 -380 -64 -69 -164 -131 -194 -120 -21 8 -15 20 15 31 16 5 45 24 64 41 20 17 39 31 43 31 14 0 82 82 109 132 54 100 66 178 42 277 -7 31 -19 94 -26 141 -6 47 -14 94 -17 105 -10 39 14 1 32 -50z"/>
 <path d="M8776 5185 c-3 -9 4 -40 15 -71 15 -40 25 -54 36 -50 8 3 17 6 19 6 9 0 2 27 -16 65 -11 22 -19 46 -20 53 0 17 -27 15 -34 -3z"/>
 <path d="M5582 5163 c-13 -32 -8 -291 6 -305 14 -14 13 -27 16 175 2 131 -5 171 -22 130z"/>
 <path d="M5883 4968 c-38 -42 -61 -175 -42 -238 25 -78 43 -127 65 -175 12 -27 27 -75 34 -105 17 -81 40 -161 55 -195 8 -16 16 -40 20 -52 4 -13 14 -23 24 -23 18 0 121 -144 121 -169 0 -6 4 -11 10 -11 13 0 40 -54 40 -79 0 -50 36 -30 52 29 86 310 107 348 228 407 66 31 110 41 213 47 37 2 71 6 74 9 10 11 68 -6 79 -22 10 -14 24 -15 100 -8 77 7 211 16 267 17 25 0 21 16 -12 50 -29 31 -44 62 -55 113 -5 20 -12 27 -30 27 -13 0 -26 6 -29 13 -12 32 -69 45 -192 43 -105 -1 -124 -4 -156 -24 -51 -32 -201 -62 -248 -50 -45 11 -111 41 -111 50 0 3 14 11 30 17 17 5 43 19 59 30 15 11 39 23 53 26 14 4 37 18 50 32 20 22 23 34 23 109 0 80 -1 85 -29 109 -34 29 -85 33 -143 11 -144 -54 -181 -56 -308 -21 -49 14 -113 25 -141 25 -37 0 -54 4 -58 15 -8 21 -19 19 -43 -7z"/>
 <path d="M5245 4631 c-3 -6 -10 -47 -16 -92 -5 -46 -12 -86 -14 -90 -3 -3 -9 -43 -14 -87 -7 -67 -14 -89 -45 -134 -35 -53 -44 -78 -28 -78 4 0 29 7 56 15 27 8 70 15 96 15 80 0 80 1 82 200 1 164 0 177 -21 211 -25 42 -80 65 -96 40z"/>
 <path d="M4921 4621 c-10 -7 -12 -21 -7 -56 6 -36 3 -52 -10 -72 -25 -40 -37 -132 -38 -303 l-1 -155 31 -54 c40 -72 140 -130 327 -192 96 -31 114 -34 137 -19 13 8 11 14 -12 35 -16 14 -28 34 -28 45 0 24 -42 73 -83 97 -27 15 -45 17 -117 12 -47 -4 -88 -5 -93 -2 -4 2 -14 17 -22 33 -12 22 -13 35 -4 57 6 15 12 42 14 58 2 17 13 75 25 130 25 124 38 305 22 305 -7 0 -12 -7 -12 -16 0 -9 -9 -33 -19 -53 -11 -20 -22 -49 -26 -66 -5 -24 -8 -27 -16 -13 -6 10 -4 31 6 58 23 66 20 126 -10 155 -26 26 -41 30 -64 16z"/>
 <path d="M7650 4621 c0 -19 12 -41 20 -36 10 6 1 45 -11 45 -5 0 -9 -4 -9 -9z"/>
 <path d="M4846 4482 c-2 -4 -7 -24 -11 -45 -10 -53 9 -47 22 8 9 39 3 60 -11 37z"/>
 <path d="M6590 4343 c-56 -16 -155 -91 -165 -125 -13 -38 11 -40 36 -4 21 30 31 36 76 42 63 7 74 0 93 -57 11 -33 11 -49 1 -87 -26 -100 -75 -170 -117 -168 -37 1 -124 -17 -124 -25 0 -14 114 -11 128 3 18 18 23 4 7 -18 -8 -12 -41 -28 -77 -39 -78 -23 -86 -30 -102 -91 -19 -70 3 -110 78 -147 30 -15 61 -27 69 -27 8 0 26 -6 39 -13 14 -7 46 -11 72 -9 41 4 46 7 41 23 -5 14 8 35 46 77 28 32 66 85 84 117 21 39 46 70 74 88 22 16 49 43 57 60 9 18 50 83 91 145 69 103 83 142 53 142 -5 0 -10 7 -10 15 0 8 6 15 14 15 37 0 28 37 -10 44 -11 2 -38 12 -60 21 -30 12 -79 17 -209 19 -93 2 -177 1 -185 -1z"/>
 <path d="M6538 4219 c-10 -5 -18 -17 -18 -25 0 -20 35 -88 54 -103 14 -12 16 -7 16 47 0 42 -5 65 -16 76 -8 9 -16 16 -17 16 -1 0 -10 -5 -19 -11z"/>
 <path d="M5705 4153 c-4 -10 -10 -62 -12 -115 -5 -94 -4 -97 20 -112 30 -20 48 -14 71 25 l19 31 23 -47 c13 -25 24 -54 24 -63 0 -9 5 -24 10 -32 9 -13 11 -13 20 0 16 22 4 129 -21 194 -18 46 -29 60 -58 73 -20 9 -48 27 -62 40 -25 23 -27 23 -34 6z"/>
 <path d="M4747 4113 c-14 -23 -16 -117 -2 -150 18 -43 88 -112 150 -146 79 -45 88 -28 12 20 -95 58 -125 106 -131 206 -3 55 -17 89 -29 70z"/>
 <path d="M7460 3941 c-16 -5 -24 -14 -23 -26 1 -10 -6 -24 -15 -31 -14 -10 -5 -17 60 -48 42 -20 79 -36 82 -36 3 0 28 -13 56 -30 28 -16 53 -30 55 -30 3 0 11 15 20 33 8 17 20 39 26 48 7 9 9 27 6 41 -14 52 -188 104 -267 79z"/>
 <path d="M6282 3836 c-23 -52 -31 -123 -18 -145 10 -15 39 -14 33 2 -2 6 2 29 9 51 15 41 19 146 7 146 -5 0 -18 -24 -31 -54z"/>
 <path d="M7274 3730 c1 -119 3 -131 23 -151 29 -29 112 -38 144 -15 13 9 33 16 45 16 44 0 171 88 162 112 -8 18 -93 59 -208 99 -52 18 -110 41 -128 51 -18 10 -34 18 -35 18 -2 0 -3 -58 -3 -130z m126 -96 c0 -8 -5 -12 -10 -9 -6 4 -8 11 -5 16 9 14 15 11 15 -7z"/>
 <path d="M4996 3772 c-3 -6 3 -12 15 -15 12 -3 19 -1 16 6 -5 15 -24 20 -31 9z"/>
 <path d="M5056 3738 c7 -11 34 -10 34 1 0 6 -9 9 -19 8 -11 0 -17 -5 -15 -9z"/>
 <path d="M7756 3734 c-3 -9 -6 -40 -6 -71 0 -39 4 -53 13 -51 13 5 32 101 23 124 -7 19 -22 18 -30 -2z"/>
 <path d="M5130 3710 c0 -5 12 -10 26 -10 14 0 23 4 19 10 -3 6 -15 10 -26 10 -10 0 -19 -4 -19 -10z"/>
 <path d="M5215 3680 c3 -5 18 -10 33 -10 21 0 24 2 12 10 -20 13 -53 13 -45 0z"/>
 <path d="M5412 3669 c-9 -3 -23 -4 -30 -1 -15 5 -44 -17 -36 -29 3 -5 18 -9 33 -9 80 0 124 -29 87 -56 -41 -29 30 -66 120 -63 53 2 79 10 151 46 72 36 95 43 144 43 42 0 59 4 59 13 0 12 -36 23 -150 47 -53 11 -353 18 -378 9z"/>
 <path d="M9880 3668 c0 -18 66 -88 82 -88 11 0 -5 20 -59 79 -16 17 -23 19 -23 9z"/>
 <path d="M7920 3590 c0 -5 16 -10 35 -10 19 0 35 5 35 10 0 6 -16 10 -35 10 -19 0 -35 -4 -35 -10z"/>
 <path d="M9987 3559 c7 -7 15 -10 18 -7 3 3 -2 9 -12 12 -14 6 -15 5 -6 -5z"/>
 <path d="M6160 3525 l33 -35 -36 -15 c-20 -8 -41 -15 -47 -15 -5 0 -10 -4 -10 -10 0 -5 -15 -13 -33 -18 -41 -11 -116 -62 -200 -135 -34 -30 -101 -80 -150 -112 -114 -76 -145 -114 -153 -194 -6 -50 -4 -65 10 -80 9 -10 17 -27 16 -37 -5 -102 -4 -109 8 -106 7 1 15 -6 18 -15 3 -10 14 -38 24 -63 10 -25 21 -76 25 -115 3 -38 8 -87 11 -108 5 -31 3 -36 -10 -31 -13 5 -16 -1 -16 -29 0 -48 31 -117 83 -185 24 -31 48 -65 54 -75 17 -33 43 5 43 63 0 40 4 50 20 55 11 3 20 13 20 22 0 8 10 23 22 33 26 21 47 100 48 181 0 38 5 61 15 69 8 7 15 18 15 25 0 7 17 21 38 30 67 32 112 102 112 179 0 47 21 105 49 132 36 36 143 94 175 94 38 0 47 34 33 122 -3 21 -2 40 3 43 6 4 10 14 10 24 0 30 28 77 52 88 25 11 134 -4 241 -34 55 -16 87 -12 57 7 -26 16 -5 19 65 9 133 -18 208 -40 250 -74 22 -18 70 -47 108 -64 37 -17 67 -34 67 -37 0 -4 -29 -5 -63 -2 -61 4 -95 17 -249 95 -14 7 -38 13 -52 13 -15 0 -35 6 -46 12 -14 9 -23 9 -30 2 -8 -8 3 -16 37 -29 26 -10 60 -26 75 -36 14 -11 29 -19 33 -19 3 0 26 -13 50 -30 24 -16 66 -34 96 -39 30 -6 74 -14 99 -20 25 -5 84 -12 132 -15 48 -4 94 -9 102 -12 8 -3 23 -1 33 4 17 10 17 11 1 16 -49 16 -53 18 -40 23 7 3 23 -2 35 -9 12 -8 42 -16 67 -16 25 -1 58 -6 75 -12 63 -20 192 -43 228 -41 20 1 37 -3 37 -8 0 -5 10 -12 23 -15 43 -11 50 -21 36 -45 -8 -11 -19 -21 -26 -21 -6 0 -13 -3 -15 -7 -1 -5 -55 -25 -118 -47 -77 -25 -135 -52 -175 -81 -33 -23 -87 -57 -119 -76 -53 -29 -67 -33 -135 -32 -101 0 -215 21 -274 50 -26 13 -69 45 -95 71 -31 31 -70 57 -108 72 -32 13 -90 39 -127 57 -88 44 -102 42 -78 -13 16 -35 16 -43 5 -59 -8 -10 -14 -32 -14 -48 0 -16 -9 -40 -20 -54 -19 -25 -19 -28 -4 -52 9 -14 27 -36 40 -49 13 -13 32 -35 42 -50 9 -14 39 -50 65 -79 36 -38 57 -53 80 -55 24 -2 33 -8 35 -25 3 -18 10 -23 31 -23 23 0 30 5 34 28 5 25 10 28 34 25 24 -4 30 0 42 29 7 18 13 39 12 46 -4 25 29 11 35 -15 3 -16 8 -35 10 -43 8 -32 59 -51 117 -44 48 6 63 3 113 -22 81 -39 95 -58 87 -114 -4 -31 -15 -55 -35 -75 -27 -28 -34 -30 -98 -29 -51 1 -75 7 -96 23 -16 11 -56 27 -89 36 -33 8 -61 20 -63 25 -5 13 -59 13 -66 1 -4 -5 -24 -12 -46 -16 -25 -4 -40 -12 -40 -21 0 -8 -7 -14 -16 -14 -27 0 -111 -90 -134 -142 -14 -33 -26 -48 -39 -48 -30 0 -51 -11 -51 -26 0 -8 3 -14 8 -14 4 0 16 -17 27 -37 32 -65 70 -123 78 -123 5 0 25 -13 45 -30 20 -16 57 -36 81 -45 25 -8 65 -27 89 -40 25 -14 58 -25 74 -25 35 0 71 17 63 30 -12 19 43 22 76 4 47 -24 58 -42 59 -95 0 -63 20 -71 188 -76 112 -3 133 -1 138 12 8 19 -12 44 -44 56 -33 13 -18 29 28 29 105 0 198 -40 333 -143 44 -34 47 -54 10 -63 -78 -16 -141 -79 -69 -67 29 5 36 2 36 -11 0 -9 12 -21 28 -27 21 -8 37 -6 77 10 28 12 62 21 77 21 15 0 29 4 32 9 3 4 31 11 63 14 32 4 85 10 118 15 33 6 81 7 106 3 25 -4 50 -6 56 -4 19 7 -130 144 -150 139 -27 -7 -93 61 -106 109 -6 22 -11 91 -11 153 0 101 -2 114 -21 133 -18 18 -22 34 -23 90 0 37 5 78 11 91 6 13 14 31 17 42 5 13 12 17 30 12 50 -12 57 53 22 224 -22 107 -15 165 29 247 19 35 37 79 41 98 3 19 10 35 14 35 8 0 90 116 90 129 0 10 45 31 66 31 12 0 13 -8 8 -35 -5 -29 -3 -35 11 -35 25 0 9 -39 -32 -78 -19 -18 -33 -38 -31 -45 3 -6 27 -20 54 -29 73 -25 77 -26 108 -46 16 -9 37 -33 47 -52 27 -50 75 -57 170 -25 39 14 77 29 83 34 6 4 37 18 69 30 67 24 98 43 150 89 21 18 50 38 65 45 15 6 54 32 86 57 71 54 108 127 132 259 8 47 21 97 28 111 12 25 11 26 -16 28 -36 3 -65 -12 -73 -38 -8 -25 -20 -25 -54 -1 -26 18 -48 20 -310 22 -155 1 -285 -2 -288 -5 -6 -5 -194 -8 -618 -8 -16 0 -54 2 -84 5 -29 3 -113 7 -185 8 -72 1 -139 6 -149 11 -9 5 -99 13 -199 18 -102 5 -185 13 -191 19 -6 6 -31 11 -57 11 -25 0 -70 7 -100 15 -30 8 -75 15 -100 15 -25 1 -63 7 -85 15 -22 8 -49 15 -60 15 -11 0 -33 7 -49 15 -15 8 -34 15 -41 15 -15 0 -179 56 -265 90 -121 48 -223 80 -257 80 l-37 0 34 -35z m1160 -425 c0 -5 -9 -10 -19 -10 -11 0 -23 5 -26 10 -4 6 5 10 19 10 14 0 26 -4 26 -10z m869 -276 c-18 -22 -22 -11 -7 22 10 21 14 24 16 10 2 -9 -2 -24 -9 -32z"/>
 <path d="M7609 3536 c-6 -7 -144 -43 -216 -56 -71 -14 -98 -34 -61 -46 34 -11 217 -5 241 7 33 18 87 71 87 86 0 12 -41 19 -51 9z"/>
 <path d="M6580 3500 c0 -5 7 -10 15 -10 8 0 18 0 22 -1 4 0 9 4 11 10 2 6 -8 11 -22 11 -14 0 -26 -4 -26 -10z"/>
 <path d="M6685 3470 c-3 -5 -1 -10 4 -11 40 -4 55 -2 59 9 5 15 -54 17 -63 2z"/>
 <path d="M7904 3434 c-4 -14 -1 -37 6 -52 l13 -27 6 25 c8 30 2 80 -10 80 -5 0 -12 -12 -15 -26z"/>
 <path d="M6800 3441 c0 -16 19 -23 40 -16 30 10 24 25 -10 25 -16 0 -30 -4 -30 -9z"/>
 <path d="M6928 3423 c-10 -2 -18 -9 -18 -14 0 -10 26 -17 95 -23 28 -3 66 -10 85 -15 51 -16 163 -14 158 2 -3 7 -43 16 -109 23 -57 6 -120 16 -139 23 -36 11 -43 12 -72 4z"/>
 <path d="M9865 3413 c-99 -4 -118 -10 -90 -26 24 -14 294 -12 308 2 5 5 6 14 3 20 -7 11 -36 11 -221 4z"/>
 <path d="M9370 3391 c-31 -4 -45 -11 -45 -21 0 -12 15 -14 90 -12 100 4 123 14 74 31 -34 12 -46 12 -119 2z"/>
 <path d="M7347 3357 l-22 -9 25 -10 c27 -10 226 -5 238 6 3 4 0 11 -8 17 -18 11 -201 8 -233 -4z"/>
 <path d="M9735 3320 c-44 -10 -116 -19 -160 -19 -114 -2 -126 -17 -18 -25 67 -4 248 -1 248 5 0 0 36 3 80 5 107 7 225 21 232 28 16 16 -21 21 -155 22 -110 1 -167 -3 -227 -16z"/>
 <path d="M9966 2901 c-7 -11 3 -41 14 -41 14 0 21 17 14 34 -7 18 -20 21 -28 7z"/>
 <path d="M9804 2879 c-11 -34 -5 -121 10 -144 7 -11 16 -32 20 -47 3 -16 11 -28 16 -28 13 0 13 97 0 105 -6 4 -9 19 -7 33 4 27 -9 80 -23 96 -5 4 -11 -3 -16 -15z"/>
 <path d="M5294 2654 c-22 -20 -53 -42 -69 -49 -17 -8 -60 -39 -95 -70 -70 -61 -118 -108 -87 -86 10 8 17 9 17 3 0 -19 149 50 194 89 24 22 56 59 70 83 44 75 31 87 -30 30z"/>
 <path d="M10184 2607 c-6 -16 55 -188 84 -236 17 -28 21 -30 25 -15 17 57 9 106 -31 182 -23 45 -71 87 -78 69z"/>
 <path d="M10870 2585 c1 -26 2 -28 11 -12 8 14 8 22 0 30 -8 8 -11 3 -11 -18z"/>
 <path d="M8430 2500 c-38 -33 -84 -59 -114 -66 -33 -6 -39 -20 -21 -48 12 -18 16 -38 12 -65 -10 -78 23 -77 66 2 12 22 27 47 32 56 35 56 51 79 68 98 18 20 18 53 0 53 -4 0 -24 -14 -43 -30z"/>
 <path d="M8215 2441 c-3 -6 -3 -36 0 -66 12 -92 45 -64 35 30 -2 27 -25 51 -35 36z"/>
 <path d="M9614 2276 c-7 -17 20 -72 39 -79 11 -4 12 3 4 38 -10 45 -33 66 -43 41z"/>
 <path d="M9103 2245 c-32 -79 34 -324 100 -370 19 -13 22 -13 30 1 5 8 6 34 2 57 l-6 42 23 -27 c13 -15 39 -47 58 -72 19 -26 37 -41 38 -36 4 11 -55 141 -68 150 -9 6 -56 87 -71 120 -5 14 -28 46 -49 71 -21 25 -40 56 -42 70 -3 23 -3 23 -15 -6z"/>
 <path d="M6225 2180 c-12 -13 -31 -20 -55 -20 l-37 0 -1 -46 c0 -25 -6 -53 -14 -62 -20 -26 -38 -60 -38 -75 0 -22 100 -177 115 -177 8 0 18 7 23 17 9 15 12 14 41 -6 17 -12 31 -26 31 -31 0 -17 93 -61 147 -70 46 -8 62 -7 80 5 27 18 29 32 6 57 -14 16 -15 21 -3 28 11 7 8 11 -12 21 -15 6 -24 17 -22 24 7 16 -18 69 -56 120 -16 22 -37 56 -46 75 -30 63 -105 160 -123 160 -10 0 -26 -9 -36 -20z"/>
 <path d="M10091 2004 c0 -11 3 -14 6 -6 3 7 2 16 -1 19 -3 4 -6 -2 -5 -13z"/>
 <path d="M10131 1884 c0 -11 3 -14 6 -6 3 7 2 16 -1 19 -3 4 -6 -2 -5 -13z"/>
 <path d="M8663 1803 c4 -3 10 -3 14 0 3 4 0 7 -7 7 -7 0 -10 -3 -7 -7z"/>
 <path d="M9354 1523 c-14 -14 -12 -18 18 -36 51 -31 148 -68 171 -65 18 3 17 6 -13 36 -19 17 -39 32 -46 32 -7 0 -17 6 -21 14 -4 8 -27 19 -51 24 -34 8 -46 7 -58 -5z"/>
 <path d="M7524 842 c-62 -42 -152 -150 -137 -166 14 -14 33 -3 89 49 33 30 62 55 66 55 8 0 -21 -57 -60 -120 -25 -40 -28 -60 -9 -60 18 0 50 45 84 121 23 49 29 74 25 107 -2 23 -7 42 -11 41 -3 0 -24 -12 -47 -27z"/>
 <path d="M7010 750 c0 -5 5 -10 10 -10 6 0 10 5 10 10 0 6 -4 10 -10 10 -5 0 -10 -4 -10 -10z"/>
 <path d="M6990 720 c-8 -5 -12 -12 -9 -15 4 -3 12 1 19 10 14 17 11 19 -10 5z"/>
 <path d="M7609 581 c-22 -18 -23 -20 -6 -27 19 -7 97 23 97 38 0 16 -68 8 -91 -11z"/>
 <path d="M7681 514 c-17 -12 -26 -13 -34 -5 -6 6 -19 11 -28 11 -15 0 -88 -88 -156 -188 -23 -33 -30 -62 -15 -62 31 2 288 232 277 250 -9 14 -17 13 -44 -6z"/>
 <path d="M8010 495 c-7 -8 -19 -15 -28 -15 -15 0 -129 -87 -194 -149 -30 -28 -38 -44 -38 -71 0 -38 -22 -80 -79 -150 -38 -46 -71 -95 -71 -105 0 -12 149 -5 162 8 7 7 35 26 62 42 27 17 64 39 82 50 18 11 54 38 80 60 114 97 119 114 19 70 -71 -32 -61 -16 36 56 38 28 74 59 79 70 16 29 -6 33 -48 9 -42 -25 -229 -100 -249 -100 -7 0 -13 3 -13 8 0 14 116 129 156 154 48 31 79 64 66 72 -5 3 -15 -1 -22 -9z"/>
 <path d="M7743 453 c-70 -57 -123 -114 -117 -125 9 -14 56 20 143 103 54 51 64 69 40 69 -5 0 -34 -21 -66 -47z"/>
 <path d="M7605 169 c-4 -6 -5 -13 -2 -16 8 -7 47 7 47 18 0 13 -37 11 -45 -2z"/>
 <path d="M8542 98 c3 -7 13 -15 22 -16 12 -3 17 1 14 10 -3 7 -13 15 -22 16 -12 3 -17 -1 -14 -10z"/>
 </g>

</svg>