<?xml version="1.0" encoding="iso-8859-1"?>
<!-- Generator: Adobe Illustrator 19.0.0, SVG Export Plug-In . SVG Version: 6.00 Build 0)  -->
<svg version="1.1" id="Capa_1" xmlns="http://www.w3.org/2000/svg" xmlns:xlink="http://www.w3.org/1999/xlink" x="0px" y="0px"
	 viewBox="0 0 480 480" style="enable-background:new 0 0 480 480;" xml:space="preserve">
<path style="fill:#FDBD40;" d="M47.999,8h296c22.091,0,40,17.909,40,40v384c0,22.091-17.909,40-40,40h-296l0,0V8L47.999,8z"/>
<g>
	<path style="fill:#2D75BB;" d="M79.999,56h-48c-4.418,0-8-3.582-8-8s3.582-8,8-8h48c4.418,0,8,3.582,8,8S84.418,56,79.999,56z"/>
	<path style="fill:#2D75BB;" d="M79.999,88h-48c-4.418,0-8-3.582-8-8s3.582-8,8-8h48c4.418,0,8,3.582,8,8S84.418,88,79.999,88z"/>
	<path style="fill:#2D75BB;" d="M79.999,120h-48c-4.418,0-8-3.582-8-8c0-4.418,3.582-8,8-8h48c4.418,0,8,3.582,8,8
		C87.999,116.418,84.418,120,79.999,120z"/>
	<path style="fill:#2D75BB;" d="M79.999,152h-48c-4.418,0-8-3.582-8-8s3.582-8,8-8h48c4.418,0,8,3.582,8,8S84.418,152,79.999,152z"
		/>
	<path style="fill:#2D75BB;" d="M79.999,184h-48c-4.418,0-8-3.582-8-8s3.582-8,8-8h48c4.418,0,8,3.582,8,8S84.418,184,79.999,184z"
		/>
	<path style="fill:#2D75BB;" d="M79.999,216h-48c-4.418,0-8-3.582-8-8s3.582-8,8-8h48c4.418,0,8,3.582,8,8S84.418,216,79.999,216z"
		/>
	<path style="fill:#2D75BB;" d="M79.999,248h-48c-4.418,0-8-3.582-8-8s3.582-8,8-8h48c4.418,0,8,3.582,8,8S84.418,248,79.999,248z"
		/>
	<path style="fill:#2D75BB;" d="M79.999,280h-48c-4.418,0-8-3.582-8-8s3.582-8,8-8h48c4.418,0,8,3.582,8,8S84.418,280,79.999,280z"
		/>
	<path style="fill:#2D75BB;" d="M79.999,312h-48c-4.418,0-8-3.582-8-8s3.582-8,8-8h48c4.418,0,8,3.582,8,8S84.418,312,79.999,312z"
		/>
	<path style="fill:#2D75BB;" d="M79.999,344h-48c-4.418,0-8-3.582-8-8s3.582-8,8-8h48c4.418,0,8,3.582,8,8S84.418,344,79.999,344z"
		/>
	<path style="fill:#2D75BB;" d="M79.999,376h-48c-4.418,0-8-3.582-8-8s3.582-8,8-8h48c4.418,0,8,3.582,8,8S84.418,376,79.999,376z"
		/>
	<path style="fill:#2D75BB;" d="M79.999,408h-48c-4.418,0-8-3.582-8-8s3.582-8,8-8h48c4.418,0,8,3.582,8,8S84.418,408,79.999,408z"
		/>
	<path style="fill:#2D75BB;" d="M79.999,440h-48c-4.418,0-8-3.582-8-8s3.582-8,8-8h48c4.418,0,8,3.582,8,8S84.418,440,79.999,440z"
		/>
	<path style="fill:#2D75BB;" d="M135.999,56h160v80h-160V56z"/>
</g>
<g>
	<path style="fill:#FFD782;" d="M263.999,392h-128c-4.418,0-8-3.582-8-8s3.582-8,8-8h128c4.418,0,8,3.582,8,8
		S268.418,392,263.999,392z"/>
	<path style="fill:#FFD782;" d="M263.999,360h-128c-4.418,0-8-3.582-8-8s3.582-8,8-8h128c4.418,0,8,3.582,8,8
		S268.418,360,263.999,360z"/>
</g>
<path style="fill:#D3843D;" d="M351.999,472V8h40c13.255,0,24,10.745,24,24v416c0,13.255-10.745,24-24,24l0,0H351.999z"/>
<path style="fill:#7D8D9C;" d="M447.999,128h-96V80h96l-16,24L447.999,128z"/>
<path d="M135.999,144h160c4.418,0,8-3.582,8-8V56c0-4.418-3.582-8-8-8h-160c-4.418,0-8,3.582-8,8v80
	C127.999,140.418,131.581,144,135.999,144z M143.999,64h144v64h-144V64z"/>
<path d="M135.999,392h128c4.418,0,8-3.582,8-8s-3.582-8-8-8h-128c-4.418,0-8,3.582-8,8S131.581,392,135.999,392z"/>
<path d="M135.999,360h128c4.418,0,8-3.582,8-8s-3.582-8-8-8h-128c-4.418,0-8,3.582-8,8S131.581,360,135.999,360z"/>
<path d="M455.055,76.224c-1.393-2.602-4.105-4.225-7.056-4.224h-24V32c0-17.673-14.327-32-32-32h-344c-4.418,0-8,3.582-8,8v32h-8
	c-4.418,0-8,3.582-8,8s3.582,8,8,8h8v16h-8c-4.418,0-8,3.582-8,8s3.582,8,8,8h8v16h-8c-4.418,0-8,3.582-8,8c0,4.418,3.582,8,8,8h8
	v16h-8c-4.418,0-8,3.582-8,8s3.582,8,8,8h8v16h-8c-4.418,0-8,3.582-8,8s3.582,8,8,8h8v16h-8c-4.418,0-8,3.582-8,8s3.582,8,8,8h8v16
	h-8c-4.418,0-8,3.582-8,8s3.582,8,8,8h8v16h-8c-4.418,0-8,3.582-8,8s3.582,8,8,8h8v16h-8c-4.418,0-8,3.582-8,8s3.582,8,8,8h8v16h-8
	c-4.418,0-8,3.582-8,8s3.582,8,8,8h8v16h-8c-4.418,0-8,3.582-8,8s3.582,8,8,8h8v16h-8c-4.418,0-8,3.582-8,8s3.582,8,8,8h8v16h-8
	c-4.418,0-8,3.582-8,8s3.582,8,8,8h8v32c0,4.418,3.582,8,8,8h344c17.673,0,32-14.327,32-32V136h24
	c4.418,0.001,8.001-3.581,8.001-7.999c0-1.581-0.468-3.126-1.345-4.441L441.599,104l13.04-19.56
	C456.283,81.988,456.443,78.83,455.055,76.224z M391.999,16c8.837,0,16,7.163,16,16v40h-16V48c-0.002-11.826-4.396-23.229-12.328-32
	H391.999z M359.999,20.448c9.867,5.672,15.964,16.171,16,27.552v24h-16V20.448z M343.999,464h-288v-24h24c4.418,0,8-3.582,8-8
	s-3.582-8-8-8h-24v-16h24c4.418,0,8-3.582,8-8s-3.582-8-8-8h-24v-16h24c4.418,0,8-3.582,8-8s-3.582-8-8-8h-24v-16h24
	c4.418,0,8-3.582,8-8s-3.582-8-8-8h-24v-16h24c4.418,0,8-3.582,8-8s-3.582-8-8-8h-24v-16h24c4.418,0,8-3.582,8-8s-3.582-8-8-8h-24
	v-16h24c4.418,0,8-3.582,8-8s-3.582-8-8-8h-24v-16h24c4.418,0,8-3.582,8-8s-3.582-8-8-8h-24v-16h24c4.418,0,8-3.582,8-8
	s-3.582-8-8-8h-24v-16h24c4.418,0,8-3.582,8-8s-3.582-8-8-8h-24v-16h24c4.418,0,8-3.582,8-8c0-4.418-3.582-8-8-8h-24V88h24
	c4.418,0,8-3.582,8-8s-3.582-8-8-8h-24V56h24c4.418,0,8-3.582,8-8s-3.582-8-8-8h-24V16h288V464z M375.999,432
	c-0.036,11.381-6.133,21.88-16,27.552V136h16V432z M407.999,448c0,8.837-7.163,16-16,16h-12.328
	c7.932-8.771,12.326-20.174,12.328-32V136h16V448z M425.343,108.44l7.704,11.56h-73.048V88h73.048l-7.704,11.56
	C423.55,102.248,423.55,105.752,425.343,108.44z"/>
<g>
</g>
<g>
</g>
<g>
</g>
<g>
</g>
<g>
</g>
<g>
</g>
<g>
</g>
<g>
</g>
<g>
</g>
<g>
</g>
<g>
</g>
<g>
</g>
<g>
</g>
<g>
</g>
<g>
</g>
</svg>
