<?xml version="1.0" standalone="no"?>
<!DOCTYPE svg PUBLIC "-//W3C//DTD SVG 20010904//EN"
 "http://www.w3.org/TR/2001/REC-SVG-20010904/DTD/svg10.dtd">
<svg version="1.0" xmlns="http://www.w3.org/2000/svg"
 width="900.000000pt" height="270.000000pt" viewBox="0 0 900.000000 270.000000"
 preserveAspectRatio="xMidYMid meet">

<g transform="translate(0.000000,270.000000) scale(0.100000,-0.100000)"
fill="#000000" stroke="none">
<path d="M8260 2456 c-70 -15 -144 -65 -181 -124 -162 -255 103 -564 369 -431
101 50 152 128 160 245 3 50 0 86 -12 121 -30 92 -122 173 -211 188 -22 4 -47
8 -55 10 -8 2 -40 -2 -70 -9z m150 -98 c64 -33 103 -92 108 -168 8 -104 -36
-181 -123 -221 -138 -64 -288 59 -273 223 14 145 162 229 288 166z"/>
<path d="M8210 2170 l0 -140 45 0 45 0 0 45 c0 31 4 45 14 45 7 0 21 -20 30
-45 l18 -45 50 0 49 0 -31 55 -31 54 21 21 c20 20 27 71 14 105 -12 30 -60 45
-144 45 l-80 0 0 -140z m139 66 c17 -20 -3 -56 -29 -56 -16 0 -20 7 -20 35 0
28 4 35 19 35 10 0 24 -6 30 -14z"/>
<path d="M2050 2364 c-82 -36 -130 -111 -130 -204 0 -168 161 -268 315 -196
59 27 77 46 104 106 50 109 4 238 -102 289 -52 25 -136 27 -187 5z"/>
<path d="M1370 2353 c-76 -9 -168 -35 -236 -68 -81 -39 -174 -130 -206 -202
-26 -59 -48 -166 -48 -235 l0 -58 -95 0 -95 0 2 -167 3 -168 93 -3 92 -3 0
-354 0 -355 -85 0 -85 0 0 -165 0 -165 420 0 420 0 0 165 0 165 -100 0 -100 0
0 355 0 355 280 0 280 0 -2 -352 -3 -353 -87 -3 -88 -3 0 -164 0 -165 405 0
405 0 0 165 0 165 -85 0 -85 0 0 525 0 525 -510 0 -510 0 0 59 c0 49 4 65 26
90 33 39 77 51 192 51 l92 0 0 179 0 178 -52 7 c-55 6 -177 6 -238 -1z"/>
<path d="M4681 1809 c-251 -49 -447 -217 -525 -449 -120 -360 25 -739 344
-900 108 -55 184 -72 335 -77 106 -4 162 -1 229 11 142 27 280 83 373 152 l31
24 -28 52 c-15 29 -52 101 -83 159 l-56 105 -94 -46 c-294 -145 -544 -84 -612
147 l-6 23 438 2 438 3 8 70 c17 144 -23 331 -95 453 -78 131 -225 234 -383
267 -76 16 -243 18 -314 4z m225 -364 c43 -25 75 -77 89 -142 l7 -33 -202 0
-201 0 7 23 c13 43 46 100 72 125 62 58 156 69 228 27z"/>
<path d="M6535 1796 c-121 -38 -232 -137 -290 -257 l-35 -73 0 103 c0 121 -14
159 -69 193 -35 22 -46 23 -298 26 l-263 3 0 -170 0 -171 79 0 c59 0 84 -4 95
-16 14 -13 16 -60 16 -355 l0 -339 -95 0 -95 0 0 -165 0 -165 420 0 420 0 0
165 0 164 -92 3 -93 3 -3 100 c-6 213 30 339 124 425 72 65 131 85 256 85 l98
0 0 228 0 227 -67 -1 c-38 0 -86 -6 -108 -13z"/>
<path d="M7754 1792 c-117 -41 -223 -136 -278 -252 l-32 -66 0 101 c0 116 -15
155 -74 190 -32 18 -55 20 -298 23 l-262 3 2 -168 3 -168 83 -5 c59 -4 86 -9
92 -20 6 -9 10 -158 10 -352 l0 -338 -95 0 -95 0 0 -165 0 -165 420 0 420 0 0
165 0 164 -92 3 -93 3 -3 85 c-5 126 14 263 45 332 33 75 113 149 185 175 37
12 82 18 150 18 l98 0 0 228 0 227 -67 0 c-38 -1 -91 -8 -119 -18z"/>
<path d="M2490 1620 l0 -170 79 0 78 0 190 -517 189 -518 276 -3 275 -2 118
322 c65 178 151 411 190 518 l72 195 79 5 79 5 3 168 2 167 -370 0 -370 0 0
-170 0 -170 60 0 c33 0 60 -2 60 -4 0 -3 -36 -118 -81 -258 -44 -139 -89 -291
-99 -338 -13 -61 -19 -78 -23 -60 -3 14 -10 50 -16 80 -6 30 -49 173 -95 317
l-83 262 61 3 61 3 3 168 2 167 -370 0 -370 0 0 -170z"/>
</g>
</svg>
