<svg height="512pt" viewBox="0 0 512 512" width="512pt" xmlns="http://www.w3.org/2000/svg"><path d="m395.207031 255.996094c0 77.28125-62.640625 139.929687-139.921875 139.929687-77.277344 0-139.917968-62.648437-139.917968-139.929687 0-77.265625 62.640624-139.917969 139.917968-139.917969 77.28125 0 139.921875 62.648437 139.921875 139.917969zm0 0" fill="#1b6ca6"/><path d="m395.207031 255.996094c0 77.28125-62.640625 139.929687-139.921875 139.929687v-279.847656c77.28125 0 139.921875 62.648437 139.921875 139.917969zm0 0" fill="#183755"/><path d="m497 512c-8.285156 0-15-6.714844-15-15v-240.996094c0-8.285156 6.714844-15 15-15s15 6.714844 15 15v240.996094c0 8.285156-6.714844 15-15 15zm0 0" fill="#183755"/><path d="m437.015625 74.988281c-48.351563-48.359375-112.636719-74.988281-181.019531-74.988281h-.707032c-68.121093.179688-132.121093 26.800781-180.300781 74.988281-48.359375 48.351563-74.988281 112.628907-74.988281 181.007813 0 68.382812 26.628906 132.671875 74.988281 181.019531 48.179688 48.191406 112.179688 74.800781 180.296875 74.980469h.710938c68.378906 0 132.667968-26.621094 181.019531-74.980469 48.359375-48.351563 74.976563-112.636719 74.976563-181.019531 0-68.378906-26.617188-132.65625-74.976563-181.007813zm-271.019531 340.367188c-39.589844 0-71.808594-32.21875-71.808594-71.820313 0-39.589844 32.222656-71.808594 71.808594-71.808594 39.601562 0 71.820312 32.222657 71.820312 71.808594 0 39.601563-32.21875 71.820313-71.820312 71.820313zm0-175.078125c-39.589844 0-71.808594-32.21875-71.808594-71.816406 0-39.59375 32.222656-71.8125 71.808594-71.8125 39.601562 0 71.820312 32.222656 71.820312 71.8125 0 39.597656-32.21875 71.816406-71.820312 71.816406zm180 175.078125c-39.589844 0-71.808594-32.21875-71.808594-71.820313 0-39.589844 32.21875-71.808594 71.808594-71.808594 39.601562 0 71.820312 32.222657 71.820312 71.808594 0 39.601563-32.21875 71.820313-71.820312 71.820313zm0-175.078125c-39.589844 0-71.808594-32.21875-71.808594-71.816406 0-39.59375 32.21875-71.8125 71.808594-71.8125 39.601562 0 71.820312 32.222656 71.820312 71.8125 0 39.597656-32.21875 71.816406-71.820312 71.816406zm0 0" fill="#ddf3fd"/><path d="m437.015625 74.988281c-48.351563-48.359375-112.636719-74.988281-181.019531-74.988281h-.707032v511.996094h.707032c68.382812 0 132.671875-26.621094 181.019531-74.980469 48.359375-48.351563 74.980469-112.636719 74.980469-181.019531 0-68.378906-26.621094-132.65625-74.980469-181.007813zm-91.019531 340.367188c-39.589844 0-71.808594-32.21875-71.808594-71.820313 0-39.589844 32.21875-71.808594 71.808594-71.808594 39.601562 0 71.820312 32.222657 71.820312 71.808594 0 39.601563-32.21875 71.820313-71.820312 71.820313zm0-175.078125c-39.589844 0-71.808594-32.21875-71.808594-71.816406 0-39.59375 32.21875-71.8125 71.808594-71.8125 39.601562 0 71.820312 32.222656 71.820312 71.8125 0 39.597656-32.21875 71.816406-71.820312 71.816406zm0 0" fill="#b2e3fc"/></svg>