<?xml version="1.0" encoding="iso-8859-1"?>
<!-- Generator: Adobe Illustrator 21.0.0, SVG Export Plug-In . SVG Version: 6.00 Build 0)  -->
<svg version="1.1" id="Capa_1" xmlns="http://www.w3.org/2000/svg" xmlns:xlink="http://www.w3.org/1999/xlink" x="0px" y="0px"
	 viewBox="0 0 512 512" style="enable-background:new 0 0 512 512;" xml:space="preserve">
<polygon style="fill:#5A5A5A;" points="330,91 330,421 300,452 30,452 0,421 0,91 30,61 300,61 "/>
<polygon style="fill:#444444;" points="330,91 330,421 300,452 165,452 165,61 300,61 "/>
<rect x="30" y="61" style="fill:#A8EBFA;" width="270" height="391"/>
<rect x="165" y="61" style="fill:#76E2F8;" width="135" height="391"/>
<path style="fill:#ECECF1;" d="M270,226c0,29.399-12.001,55.8-31.5,74.7h-147C72.001,281.8,60,255.399,60,226
	c0-57.9,47.1-105,105-105S270,168.1,270,226z"/>
<path style="fill:#6E6E6E;" d="M330,45v46H0V45C0,20.099,20.099,0,45,0h240C309.901,0,330,20.099,330,45z"/>
<g>
	<path style="fill:#5A5A5A;" d="M330,45v46H165V0h120C309.901,0,330,20.099,330,45z"/>
	<path style="fill:#5A5A5A;" d="M375,241H255c-8.291,0-15-6.709-15-15s6.709-15,15-15h120c8.291,0,15,6.709,15,15
		S383.291,241,375,241z"/>
	<path style="fill:#5A5A5A;" d="M375,391h-90c-8.291,0-15-6.709-15-15s6.709-15,15-15h90c8.291,0,15,6.709,15,15
		S383.291,391,375,391z"/>
</g>
<path style="fill:#FF7816;" d="M180,376c0,8.399-6.599,15-15,15s-15-6.601-15-15c0-8.401,6.599-15,15-15S180,367.599,180,376z"/>
<circle style="fill:#FF4B00;" cx="225" cy="376" r="15"/>
<circle style="fill:#FF7816;" cx="105" cy="376" r="15"/>
<path style="fill:#FF4B00;" d="M180,376c0,8.399-6.599,15-15,15v-30C173.401,361,180,367.599,180,376z"/>
<path style="fill:#6E6E6E;" d="M330,421v46c0,24.899-20.099,45-45,45H45c-24.901,0-45-20.101-45-45v-46H330z"/>
<path style="fill:#5A5A5A;" d="M165,421h165v46c0,24.899-20.099,45-45,45H165V421z"/>
<path style="fill:#E2E2E7;" d="M270,226c0,29.399-12.001,55.8-31.5,74.7H165V121C222.9,121,270,168.1,270,226z"/>
<path style="fill:#FF7816;" d="M238.5,300.7c-18.9,18.6-45,30.3-73.5,30.3s-54.6-11.7-73.5-30.3c7.2-33.9,37.2-59.7,73.5-59.7
	S231.301,266.8,238.5,300.7z"/>
<path style="fill:#FF4B00;" d="M238.5,300.7c-18.9,18.6-45,30.3-73.5,30.3v-90C201.301,241,231.301,266.8,238.5,300.7z"/>
<path style="fill:#FF9F00;" d="M195,211c0,16.5-13.5,30-30,30s-30-13.5-30-30s13.5-30,30-30S195,194.5,195,211z"/>
<path style="fill:#FF7816;" d="M195,211c0,16.5-13.5,30-30,30v-60C181.5,181,195,194.5,195,211z"/>
<g>
	<path style="fill:#FF4B00;" d="M467,271h-62c-24.814,0-45-20.186-45-45s20.186-45,45-45h62c24.814,0,45,20.186,45,45
		S491.814,271,467,271z"/>
	<path style="fill:#FF4B00;" d="M467,421h-62c-24.814,0-45-20.186-45-45s20.186-45,45-45h62c24.814,0,45,20.186,45,45
		S491.814,421,467,421z"/>
</g>
<g>
</g>
<g>
</g>
<g>
</g>
<g>
</g>
<g>
</g>
<g>
</g>
<g>
</g>
<g>
</g>
<g>
</g>
<g>
</g>
<g>
</g>
<g>
</g>
<g>
</g>
<g>
</g>
<g>
</g>
</svg>
