<svg id="Layer_1" enable-background="new 0 0 256 256" height="512" viewBox="0 0 256 256" width="512" xmlns="http://www.w3.org/2000/svg"><path d="m206.784 252h-157.568c-5.523 0-10-4.477-10-10v-228c0-5.523 4.477-10 10-10h157.569c5.523 0 10 4.477 10 10v228c-.001 5.523-4.478 10-10.001 10z" fill="#f4efed"/><path d="m104.976 86.32h46.42v83.361h-46.42z" fill="#7bac51"/><path d="m151.396 86.32h46.42v83.361h-46.42z" fill="#ff4397"/><path d="m58.556 86.32h46.42v83.361h-46.42z" fill="#7bac51"/><path d="m206.784 4h-10c5.523 0 10 4.477 10 10v228c0 5.523-4.477 10-10 10h10c5.523 0 10-4.477 10-10v-228c0-5.523-4.477-10-10-10z" fill="#d6d1cf"/><path d="m49.216 252h10c-5.523 0-10-4.477-10-10v-228c0-5.523 4.477-10 10-10h-10c-5.523 0-10 4.477-10 10v228c0 5.523 4.477 10 10 10z" fill="#fff"/><g fill="#690589"><path d="m206.784 254h-157.568c-6.617 0-12-5.383-12-12v-228c0-6.617 5.383-12 12-12h157.568c6.617 0 12 5.383 12 12v228c0 6.617-5.383 12-12 12zm-157.568-248c-4.411 0-8 3.589-8 8v228c0 4.411 3.589 8 8 8h157.568c4.411 0 8-3.589 8-8v-228c0-4.411-3.589-8-8-8z"/><path d="m47.216 46.892c-1.104 0-2-.896-2-2v-12c0-1.104.896-2 2-2s2 .896 2 2v12c0 1.104-.896 2-2 2z"/><path d="m104.976 171.681h-46.419c-1.104 0-2-.896-2-2v-83.362c0-1.104.896-2 2-2h46.419c1.104 0 2 .896 2 2v83.361c0 1.105-.895 2.001-2 2.001zm-44.419-4h42.419v-79.362h-42.419z"/><path d="m151.396 171.681h-46.42c-1.104 0-2-.896-2-2v-83.362c0-1.104.896-2 2-2h46.42c1.104 0 2 .896 2 2v83.361c0 1.105-.896 2.001-2 2.001zm-44.42-4h42.42v-79.362h-42.42z"/><path d="m197.816 171.681h-46.42c-1.104 0-2-.896-2-2v-83.362c0-1.104.896-2 2-2h46.42c1.104 0 2 .896 2 2v83.361c0 1.105-.896 2.001-2 2.001zm-44.42-4h42.42v-79.362h-42.42z"/><path d="m84.697 217.326h-25.481c-1.104 0-2-.896-2-2s.896-2 2-2h25.481c1.104 0 2 .896 2 2s-.895 2-2 2z"/><path d="m103.821 231.473h-44.605c-1.104 0-2-.896-2-2s.896-2 2-2h44.605c1.104 0 2 .896 2 2s-.896 2-2 2z"/><path d="m98.509 21.646h-39.293c-1.104 0-2-.896-2-2s.896-2 2-2h39.293c1.104 0 2 .896 2 2s-.896 2-2 2z"/><path d="m98.509 37.051h-39.293c-1.104 0-2-.896-2-2s.896-2 2-2h39.293c1.104 0 2 .896 2 2s-.896 2-2 2z"/><path d="m98.509 52.455h-39.293c-1.104 0-2-.896-2-2s.896-2 2-2h39.293c1.104 0 2 .896 2 2s-.896 2-2 2z"/><path d="m98.509 67.86h-39.293c-1.104 0-2-.896-2-2s.896-2 2-2h39.293c1.104 0 2 .896 2 2s-.896 2-2 2z"/><path d="m196.784 21.646h-39.293c-1.104 0-2-.896-2-2s.896-2 2-2h39.293c1.104 0 2 .896 2 2s-.895 2-2 2z"/><path d="m196.784 37.051h-39.293c-1.104 0-2-.896-2-2s.896-2 2-2h39.293c1.104 0 2 .896 2 2s-.895 2-2 2z"/><path d="m196.784 52.455h-39.293c-1.104 0-2-.896-2-2s.896-2 2-2h39.293c1.104 0 2 .896 2 2s-.895 2-2 2z"/><path d="m196.784 67.86h-39.293c-1.104 0-2-.896-2-2s.896-2 2-2h39.293c1.104 0 2 .896 2 2s-.895 2-2 2z"/></g><circle cx="171.224" cy="209.213" fill="#fcc24c" r="26.592"/><path d="m171.224 182.621c-.895 0-1.78.046-2.652.132 13.441 1.331 23.939 12.669 23.939 26.46s-10.499 25.129-23.939 26.46c.872.086 1.757.132 2.652.132 14.686 0 26.592-11.906 26.592-26.592s-11.906-26.592-26.592-26.592z" fill="#dea42e"/><path d="m171.224 235.805c.895 0 1.78-.046 2.652-.132-13.441-1.331-23.94-12.669-23.94-26.46s10.499-25.128 23.94-26.46c-.872-.086-1.757-.132-2.652-.132-14.686 0-26.592 11.906-26.592 26.592s11.905 26.592 26.592 26.592z" fill="#fce06a"/><path d="m171.224 237.806c-15.766 0-28.592-12.826-28.592-28.592s12.826-28.593 28.592-28.593 28.592 12.827 28.592 28.593-12.827 28.592-28.592 28.592zm0-53.185c-13.56 0-24.592 11.032-24.592 24.593 0 13.56 11.032 24.592 24.592 24.592s24.592-11.032 24.592-24.592c0-13.561-11.032-24.593-24.592-24.593z" fill="#690589"/><path d="m171.588 193.439c.874 0 1.566.692 1.566 1.566v.802c2.149.255 3.971.947 5.647 2.004.583.328 1.093.874 1.093 1.749 0 1.129-.911 2.004-2.04 2.004-.365 0-.729-.109-1.093-.328-1.275-.765-2.514-1.311-3.752-1.603v6.995c5.537 1.384 7.905 3.606 7.905 7.504 0 4.007-3.133 6.667-7.76 7.104v2.186c0 .874-.692 1.567-1.566 1.567s-1.603-.692-1.603-1.567v-2.259c-2.732-.292-5.246-1.275-7.468-2.842-.619-.401-.984-.983-.984-1.749 0-1.129.874-2.004 2.004-2.004.437 0 .874.146 1.202.401 1.712 1.238 3.388 2.077 5.392 2.441v-7.176c-5.319-1.384-7.796-3.388-7.796-7.505 0-3.898 3.097-6.594 7.65-6.958v-.765c0-.874.729-1.567 1.603-1.567zm-1.457 12.423v-6.448c-2.331.219-3.497 1.457-3.497 3.06 0 1.53.692 2.477 3.497 3.388zm2.878 5.064v6.63c2.331-.255 3.606-1.421 3.606-3.169 0-1.604-.801-2.587-3.606-3.461z" fill="#690589"/></svg>