<svg id="Capa_1" enable-background="new 0 0 512 512" height="512" viewBox="0 0 512 512" width="512" xmlns="http://www.w3.org/2000/svg"><path id="XMLID_3628_" d="m22.344 98.478c0-21.496 17.426-38.923 38.923-38.923h389.467c21.496 0 38.923 17.426 38.923 38.923v36.71c0 5.934-4.81 10.744-10.744 10.744h-445.825c-5.934 0-10.744-4.81-10.744-10.744z" fill="#47578a"/><path id="XMLID_3662_" d="m450.734 59.555c21.496 0 38.923 17.426 38.923 38.923v36.71c0 5.934-4.81 10.744-10.744 10.744h-222.913v-86.377z" fill="#293a71"/><path id="XMLID_3655_" d="m489.656 135.798v222.486c0 8.8-7.134 15.934-15.934 15.934h-435.445c-8.8 0-15.934-7.134-15.934-15.934v-222.486z" fill="#f2f3fb"/><path id="XMLID_3659_" d="m489.656 135.798v222.486c0 8.8-7.134 15.934-15.934 15.934h-217.722v-238.42z" fill="#d9dafb"/><path id="XMLID_3654_" d="m173.825 308.91c-2.93 0-5.895-.808-8.55-2.499l-59.594-37.988c-4.59-2.926-7.369-7.993-7.369-13.436s2.779-10.51 7.369-13.436l59.595-37.988c7.421-4.73 17.271-2.549 22.001 4.872 4.73 7.42 2.549 17.27-4.872 22.001l-38.516 24.551 38.516 24.551c7.42 4.73 9.601 14.58 4.871 22.001-3.038 4.766-8.189 7.371-13.451 7.371z" fill="#2eb3f2"/><path id="XMLID_3652_" d="m338.175 308.91c-5.262 0-10.413-2.605-13.451-7.371-4.73-7.42-2.549-17.27 4.872-22.001l38.516-24.551-38.516-24.551c-7.421-4.73-9.602-14.58-4.872-22.001 4.73-7.42 14.581-9.602 22.001-4.872l59.595 37.988c4.59 2.926 7.369 7.993 7.369 13.436s-2.779 10.51-7.369 13.436l-59.595 37.988c-2.655 1.692-5.62 2.499-8.55 2.499z" fill="#1b97fb"/><ellipse id="XMLID_3624_" cx="424.68" cy="97.677" fill="#ca2e17" rx="16.239" ry="16.265"/><ellipse id="XMLID_128_" cx="134.239" cy="97.677" fill="#1b97fb" rx="16.239" ry="16.265"/><ellipse id="XMLID_3622_" cx="77.239" cy="97.677" fill="#fcc418" rx="16.239" ry="16.265"/><path id="XMLID_3656_" d="m237.739 316.771c-1.75 0-3.529-.29-5.274-.902-8.303-2.913-12.674-12.006-9.761-20.31l36.521-104.114c2.913-8.304 12.006-12.674 20.31-9.761 8.303 2.913 12.674 12.006 9.761 20.31l-36.521 104.114c-2.301 6.558-8.458 10.663-15.036 10.663z" fill="#2eb3f2"/><path id="XMLID_3648_" d="m302.278 421.298h-92.555c-8.8 0-15.934-7.134-15.934-15.934s7.134-15.934 15.934-15.934h92.555c8.8 0 15.934 7.134 15.934 15.934-.001 8.8-7.134 15.934-15.934 15.934z" fill="#47578a"/><path id="XMLID_3649_" d="m75.976 452.445h360.047c41.961 0 75.976-34.016 75.976-75.976v-4.763c0-7.413-6.009-13.422-13.422-13.422h-485.155c-7.413 0-13.422 6.009-13.422 13.422v4.763c0 41.96 34.016 75.976 75.976 75.976z" fill="#47578a"/><path id="XMLID_3660_" d="m498.578 358.284c7.413 0 13.422 6.009 13.422 13.422v4.762c0 41.961-34.016 75.976-75.976 75.976h-180.024v-94.161h242.578z" fill="#293a71"/><path id="XMLID_559_" d="m279.535 181.684c-8.303-2.913-17.396 1.457-20.31 9.761l-3.225 9.195v96.273l33.296-94.919c2.913-8.304-1.458-17.397-9.761-20.31z" fill="#1b97fb"/></svg>